<svg id="eQrtg7R6uyP1" xmlns="http://www.w3.org/2000/svg" xmlns:xlink="http://www.w3.org/1999/xlink" viewBox="0 0 300 50" shape-rendering="geometricPrecision" text-rendering="geometricPrecision" project-id="4253141dcc6744bebae6207540a92f94" export-id="8edb5784f1b84f32a1998b1b6c9db303" cached="false"><defs><linearGradient id="eQrtg7R6uyP3-fill" x1="0.129594" y1="0.120394" x2="0.796388" y2="0.782009" spreadMethod="pad" gradientUnits="objectBoundingBox" gradientTransform="translate(0 0)"><stop id="eQrtg7R6uyP3-fill-0" offset="0%" stop-color="#387eb8"/><stop id="eQrtg7R6uyP3-fill-1" offset="100%" stop-color="#366994"/></linearGradient><linearGradient id="eQrtg7R6uyP4-fill" x1="0.191275" y1="0.205792" x2="0.907415" y2="0.88429" spreadMethod="pad" gradientUnits="objectBoundingBox" gradientTransform="translate(0 0)"><stop id="eQrtg7R6uyP4-fill-0" offset="0%" stop-color="#ffe052"/><stop id="eQrtg7R6uyP4-fill-1" offset="100%" stop-color="#ffc331"/></linearGradient></defs><g transform="matrix(.15 0 0 0.15 5.151278 5.93511)"><path d="M126.915866,0.072276C62.083583,0.07228,66.132129,28.187465,66.132129,28.187465l.072275,29.127047h61.867872v8.745341h-86.441559c0,0-41.486166-4.704909-41.486166,60.711462s36.210051,63.096556,36.210051,63.096556h21.61039v-30.355731c0,0-1.164856-36.210051,35.631846-36.210051h61.361942c0,0,34.475438.557297,34.475438-33.319029v-56.013551c0-.000005,5.234323-33.897233-62.518352-33.897233v0v0ZM92.801807,19.65895c6.1554-.000005,11.130435,4.975035,11.130435,11.130435s-4.975035,11.130434-11.130435,11.130434-11.130435-4.975035-11.130435-11.130434s4.975035-11.130435,11.130435-11.130435v0v0Z" fill="url(#eQrtg7R6uyP3-fill)"/><path d="M128.757101,254.126271c64.832302,0,60.783738-28.11519,60.783738-28.11519l-.072275-29.127046h-61.867872v-8.745342h86.441559c0,0,41.486166,4.704896,41.486166-60.711485s-36.210051-63.096549-36.210051-63.096549h-21.61039v30.355724c0,0,1.164874,36.210051-35.631846,36.210051h-61.361948c0,0-34.475437-.557296-34.475437,33.319052v56.013552c0,0-5.234322,33.897233,62.518356,33.897233v0v0Zm34.114059-19.586674c-6.155401,0-11.130434-4.975033-11.130434-11.130435s4.975033-11.130435,11.130434-11.130435s11.130435,4.975032,11.130435,11.130435-4.975032,11.130435-11.130435,11.130435v0v0Z" fill="url(#eQrtg7R6uyP4-fill)"/></g><g transform="matrix(.19 0 0 0.19 48.480719 5.306931)"><path d="M53.172068,0C38.564881,0,27.756475,12.784814,28.240271,26.650034c.464271,13.320678-.138847,30.572475-4.482169,44.641627C19.401763,85.402034,12.03417,94.340339,0,95.488v12.956203c12.03417,1.147661,19.401763,10.085966,23.758102,24.196339c4.343322,14.069153,4.94644,31.32095,4.482169,44.641627-.483796,13.863051,10.32461,26.650034,24.933966,26.650034h149.673221c14.607186,0,25.413423-12.784813,24.929627-26.650034-.464271-13.320677.138847-30.572474,4.482169-44.641627C236.617763,118.530169,243.965831,109.591864,256,108.444203L256,95.488c-12.034169-1.147661-19.382237-10.085966-23.740746-24.196339-4.343322-14.066983-4.94644-31.320949-4.482169-44.641627C228.260881,12.786983,217.454644,0,202.847458,0h-149.67756.00217ZM173.559322,125.533288c0,19.091526-14.240542,30.670102-37.872814,30.670102h-40.228881c-2.396354,0-4.338983-1.942629-4.338983-4.338983v-99.79661c0-2.396355,1.942629-4.338983,4.338983-4.338983h39.998915c19.705492,0,32.637831,10.673898,32.637831,27.062237c0,11.502644-8.699661,21.80122-19.783593,23.604068v.600949c15.088813,1.655322,25.248542,12.103593,25.248542,26.53722ZM131.299797,61.48339h-22.938034v32.399186h19.319322c14.934779,0,23.170169-6.01383,23.170169-16.763661c0-10.072949-7.08122-15.635525-19.551457-15.635525v0Zm-22.938034,45.255593v35.705492h23.781966c15.548746,0,23.786305-6.239458,23.786305-17.96556c0-11.728271-8.467526-17.742101-24.786441-17.742101h-22.78183v.002169Z" fill="#7e13f8"/></g><g transform="matrix(.15 0 0 0.15 103.271574 5.48049)"><rect width="256" height="256" rx="28" ry="28" fill="#092e20"/><path d="M186.377012,94.197636v66.226842c0,22.818808-1.669493,33.763267-6.677975,43.224928-4.638679,9.09186-10.761353,14.841142-23.375306,21.149315l-26.528794-12.61515c12.61515-5.935978,18.736627-11.128761,22.632112-19.108822c4.082182-8.161969,5.381874-17.62363,5.381874-42.481734v-56.395379h28.568089ZM140.928486,50.078721v132.238265c-14.655642,2.78249-25.415798,3.895486-37.102255,3.895486-34.877459,0-53.057588-15.767441-53.057588-46.007418c0-29.125785,19.294321-48.046714,49.160906-48.046714c4.637483,0,8.16197.369802,12.42965,1.482798v-43.562417h28.569287Zm-38.21525,65.081533c-14.470143,0-22.818808,8.905164-22.818808,24.487105c0,15.213337,7.977666,23.560805,22.633308,23.560805c3.152292,0,5.750479-.185499,9.831463-.7408v-45.824312c-3.338987-1.111799-6.121477-1.482798-9.645963-1.482798Zm83.663776-64.929543v29.311283h-28.568089v-29.311283h28.568089Z" fill="#fffffd"/></g><g transform="matrix(.15 0 0 0.15 149.955396 6.294257)"><path d="M255.007926,158.085617c-1.534817-4.648204-5.555732-7.886338-10.756138-8.663797-2.451806-.365968-5.260121-.209885-8.5828.475344-5.79163,1.194864-10.088646,1.649515-13.224498,1.738199c11.836304-19.985146,21.461431-42.775649,27.002383-64.228804c8.959409-34.688296,4.171677-50.491122-1.423076-57.639612C233.217182,10.847778,211.614448,0.683455,185.55152,0.37188c-13.902042-.169681-26.107862,2.575372-32.474162,4.548878-5.928203-1.045285-12.302781-1.629414-18.991298-1.737608-12.535723-.199834-23.612896,2.532804-33.077801,8.149432-5.241201-1.771307-13.65018-4.269229-23.362217-5.86376-22.842532-3.750134-41.252065-.827713-54.717783,8.685081C6.6223,25.672129,-0.93709,45.68388,0.461155,73.633995c.443418,8.874273,5.407926,35.8737,13.223907,61.480204c4.49212,14.717339,9.282217,26.939713,14.237266,36.329533c7.026697,13.314956,14.545293,21.15636,22.986199,23.971769c4.731565,1.576795,13.327371,2.680019,22.36896-4.848628c1.145792,1.387012,2.674107,2.766337,4.703779,4.046928c2.576554,1.625275,5.727778,2.953164,8.874272,3.740084c11.341451,2.83551,21.964564,2.126041,31.027437-1.847576.055575,1.611677.098734,3.151816.13539,4.481479.060305,2.157376.119427,4.272184.198651,6.249829.536832,13.374669,1.446725,23.773709,4.142707,31.049311.147806.40085.347048,1.010402.557524,1.65661c1.344444,4.118467,3.594051,11.012139,9.315326,16.411788c5.925838,5.592388,13.092656,7.30812,19.656425,7.307529c3.291935,0,6.433108-.431594,9.187621-1.022227c9.820822-2.104166,20.973672-5.310965,29.041515-16.798448c7.627381-10.860194,11.335538-27.216998,12.006577-52.990817.08691-.728388.167317-1.424259.244767-2.087612.052028-.447557.105238-.905164.159039-1.361589l1.797321.157856.462929.031335c10.002328.455834,22.232388-1.665478,29.743298-5.154291c5.935298-2.754512,24.953792-12.794679,20.475861-26.351445"/><path d="M237.905589,160.722476c-29.739751,6.13454-31.784203-3.934596-31.784203-3.934596c31.400499-46.593183,44.526854-105.736277,33.199002-120.211215-30.903279-39.484896-84.398411-20.811085-85.291159-20.326282l-.287335.051437c-5.875585-1.219695-12.451178-1.94631-19.841478-2.066919-13.45685-.220527-23.664333,3.527833-31.409959,9.401644c0,0-95.43006-39.313441-90.991741,49.444065.944185,18.882512,27.063871,142.873422,58.21842,105.422337c11.386975-13.694522,22.389063-25.273644,22.389063-25.273644c5.464683,3.630115,12.006577,5.481829,18.864776,4.816702l.532692-.452287c-.165542,1.700361-.089866,3.363474.213432,5.33225-8.025866,8.967094-5.667473,10.541524-21.711519,13.844101-16.234421,3.345737-6.697386,9.302319-.470615,10.859012c7.548749,1.887778,25.012915,4.561884,36.813155-11.956915l-.470614,1.884822c3.14472,2.518615,5.352942,16.383409,4.982836,28.951649-.370106,12.568832-.617238,21.197746,1.860582,27.9377s4.947362,21.90485,26.038688,17.385534c17.623797-3.776739,26.756434-13.563862,28.026975-29.889331.901616-11.606318,2.94193-9.890586,3.070817-20.267159l1.636508-4.91248c1.887187-15.733063.299751-20.808721,11.15758-18.447963l2.638633.231759c7.991575.363603,18.450919-1.285321,24.589598-4.138568c13.218586-6.13454,21.058217-16.376905,8.024683-13.685653h.001183" fill="#336791"/><path d="M108.076342,81.525062c-2.679427-.373062-5.106993-.027787-6.334966.901617-.69114.523233-.904572,1.129238-.961921,1.546642-.15431,1.104998.620194,2.326467,1.095538,2.956711c1.345626,1.783723,3.312037,3.009922,5.258346,3.280111.282014.039021.562255.05794.841312.05794c3.24582,0,6.196028-2.526891,6.456167-4.392203.325173-2.335926-3.066088-3.89321-6.354476-4.350818" fill="#fff"/><path d="M196.860453,81.598965h-.000592c-.255408-1.83102-3.514235-2.353071-6.606337-1.923251-3.087372.430411-6.081921,1.823926-5.831833,3.659085.201016,1.427215,2.776979,3.863649,5.827695,3.863058.257182,0,.517321-.017146.779233-.053802c2.036175-.282013,3.530199-1.57502,4.239667-2.320554c1.081349-1.13515,1.706273-2.401552,1.592167-3.224536" fill="#fff"/><path d="M247.802088,160.025423c-1.133968-3.4291-4.783594-4.532915-10.847779-3.280111-18.005136,3.715843-24.453025,1.141653-26.570789-.417404c13.995455-21.320721,25.50836-47.091585,31.719168-71.137257c2.942522-11.38993,4.567797-21.967519,4.700231-30.588748.146624-9.464314-1.464462-16.4177-4.788914-20.665644-13.402458-17.125395-33.07189-26.311243-56.882254-26.563695-16.368629-.183871-30.198541,4.005542-32.879742,5.183261-5.646189-1.404158-11.801422-2.266162-18.501764-2.37613-12.288591-.198651-22.909931,2.74328-31.704388,8.739474-3.819899-1.421303-13.692157-4.810199-25.76436-6.754735-20.872573-3.361108-37.458181-.814706-49.294485,7.570624C12.863852,29.740933,6.343834,47.626642,7.607279,72.894374c.425091,8.501802,5.268398,34.653414,12.912924,59.698845c10.062042,32.963696,20.999095,51.62509,32.507862,55.463317c1.346808.44933,2.900545.763861,4.61273.763861c4.198281,0,9.344886-1.892508,14.700194-8.330346c8.894965-10.701155,17.199889-19.66825,20.261247-22.926485c4.524046,2.428748,9.493284,3.784425,14.577219,3.920406.008868.133026.022466.266051.034291.398485-1.019861,1.209645-1.856443,2.269709-2.56946,3.174873-3.521921,4.470836-4.255039,5.401423-15.592351,7.736167-3.224535.665127-11.79078,2.430521-11.915528,8.434401-.136573,6.559631,10.12412,9.314735,11.293561,9.606799c4.074124,1.019862,7.998669,1.522994,11.741709,1.522994c9.103667-.000592,17.114161-2.992185,23.516526-8.78086-.197469,23.385866.778051,46.430005,3.585774,53.451381c2.29927,5.747289,7.917672,19.794772,25.664443,19.793589c2.60316,0,5.470005-.302706,8.623003-.978475c18.520683-3.971252,26.563104-12.156749,29.674716-30.203271c1.664886-9.644637,4.522272-32.67636,5.865533-45.029986c2.836102.884471,6.487501,1.28946,10.434513,1.288869c8.232203,0,17.730808-1.748841,23.687981-4.513996c6.691474-3.107473,18.767816-10.734263,16.577922-17.359519v0ZM203.696185,76.544591c-.061488,3.647261-.563437,6.958116-1.095538,10.414411-.572305,3.717026-1.164712,7.559982-1.3137,12.225331-.147215,4.540009.419769,9.260341.968425,13.824591c1.107954,9.219547,2.244877,18.711649-2.156785,28.07782-.684047-1.214966-1.344444-2.54049-1.949857-4.008499-.546882-1.326116-1.734651-3.456296-3.378845-6.40473-6.399409-11.475658-21.384573-38.349155-13.713442-49.315178c2.28449-3.264739,8.083215-6.619935,22.639742-4.813746v0ZM186.052286,14.758134c21.333728.471206,38.209035,8.452139,50.157672,23.719908c9.163973,11.710965-.927039,64.997986-30.140009,110.968609-.288517-.366559-.582355-.736665-.886245-1.116231-.121201-.151944-.244766-.306254-.369515-.462337c7.548749-12.467141,6.072462-24.801847,4.758763-35.738309-.539788-4.487982-1.049423-8.727058-.919945-12.708361.134208-4.221339.692323-7.840221,1.23152-11.340267.663944-4.313571,1.338531-8.77613,1.152295-14.037432.138938-.551612.195104-1.203732.122384-1.977645-.475345-5.045506-6.235049-20.143593-17.975576-33.810919-6.421284-7.474254-15.786863-15.839483-28.573856-21.481533c5.500157-1.13988,13.021709-2.202901,21.442512-2.015483v0ZM66.674106,175.777995c-5.899824,7.093506-9.97454,5.734282-11.314254,5.287908-8.730605-2.91237-18.860046-21.36388-27.791076-50.624148-7.727889-25.317986-12.244249-50.776683-12.601349-57.915713-1.128646-22.577663,4.344314-38.31309,16.267529-46.768776c19.403972-13.760739,51.30642-5.524398,64.12534-1.346809-.184462.181506-.376019.351779-.558707.536241C73.76643,46.19115,74.265423,82.487575,74.316859,84.705848c-.001773.856092.069765,2.068101.168499,3.735353.361829,6.104388,1.035233,17.466531-.763861,30.333931-1.672573,11.956914,2.013117,23.660194,10.110522,32.108785.838355.87442,1.713367,1.69563,2.617348,2.46836-3.604693,3.860102-11.43782,12.395603-19.775261,22.425718v0ZM89.153035,145.78461c-6.526522-6.809127-9.490328-16.281127-8.132878-25.989026c1.900194-13.592831,1.198411-25.43091.821801-31.790706-.052618-.889792-.099325-1.669617-.127113-2.285081c3.073183-2.72436,17.313996-10.355289,27.469451-8.028231c4.635196,1.061838,7.458291,4.217201,8.632462,9.64582c6.0766,28.102651.804655,39.815981-3.431465,49.228268-.873238,1.939214-1.697995,3.772009-2.402734,5.668655l-.5457,1.465645c-1.382282,3.706383-2.668194,7.152037-3.465164,10.424462-6.937422-.021284-13.686836-2.984499-18.81866-8.339806v0Zm1.064794,37.900415c-2.025533-.506087-3.847686-1.385237-4.916619-2.114217.892748-.42036,2.481959-.991482,5.237654-1.559057c13.337422-2.746236,15.396656-4.683677,19.894688-10.394901c1.031686-1.30897,2.200536-2.793534,3.819307-4.601497.000591-.001182.001183-.001773.001774-.002365c2.411603-2.699528,3.514235-2.241921,5.514346-1.412434c1.621136.67104,3.199705,2.702485,3.84,4.938494.302707,1.055927.643252,3.060767-.470023,4.619825-9.396323,13.155917-23.087889,12.986827-32.921127,10.526152v0Zm69.798725,64.952462c-16.316009,3.495908-22.092859-4.829117-25.89975-14.346051-2.457127-6.144591-3.664407-33.851122-2.807723-64.447556.011233-.407353-.046707-.800517-.159039-1.170032-.097552-.713608-.247723-1.435492-.455834-2.162107-1.274679-4.451917-4.379196-8.176037-8.103908-9.719723-1.479833-.613099-4.196508-1.738198-7.460656-.90339.696462-2.868028,1.903742-6.106161,3.21212-9.613302l.549248-1.475696c.61842-1.663113,1.393515-3.385939,2.214133-5.209274c4.432998-9.84861,10.504278-23.337386,3.915086-53.810846-2.46836-11.413579-10.710023-16.987048-23.20436-15.692859-7.490809.775095-14.343095,3.797432-17.760961,5.53031-.734891.372471-1.407113.731935-2.034993,1.082531.953644-11.50049,4.558337-32.992074,18.04061-46.589635c8.488203-8.560924,19.793588-12.788767,33.567926-12.561146c27.140138.444601,44.544,14.372656,54.366004,25.978975c8.463372,10.001737,13.046541,20.076194,14.875788,25.509543-13.754827-1.398245-23.109765,1.317247-27.852564,8.096813-10.316859,14.747492,5.644416,43.372194,13.315548,57.128794c1.406522,2.52157,2.620896,4.700231,3.002826,5.626088c2.497922,6.054134,5.731917,10.095741,8.093266,13.04654.723658.903982,1.426032,1.780767,1.959908,2.546402-4.165765,1.201367-11.648887,3.975982-10.967206,17.846688-.549838,6.960481-4.461376,39.546384-6.447889,51.059289-2.62267,15.209829-8.219788,20.875529-23.95758,24.249644v0Zm68.104277-77.936923c-4.259769,1.977644-11.388748,3.461025-18.161219,3.779103-7.480166.350596-11.287649-.837764-12.183353-1.568517-.420952-8.643695,2.79708-9.547085,6.20194-10.503095.535057-.150762,1.057108-.296794,1.560831-.472979.313349.254818.656259.507862,1.031686.755585c6.012157,3.968295,16.735778,4.396341,31.874069,1.271722.055575-.011824.11115-.022466.166134-.033699-2.041496,1.909062-5.53563,4.471427-10.490088,6.77188v0Z" fill="#fff"/></g></svg>
