<svg id="eiSf8tOYj2N1" xmlns="http://www.w3.org/2000/svg" xmlns:xlink="http://www.w3.org/1999/xlink" viewBox="0 0 350 50" shape-rendering="geometricPrecision" text-rendering="geometricPrecision" project-id="4253141dcc6744bebae6207540a92f94" export-id="f714b471bafd4b00b28478872d29f2a9" cached="false"><defs><linearGradient id="eiSf8tOYj2N4-fill" x1="0.129594" y1="0.120394" x2="0.796388" y2="0.782009" spreadMethod="pad" gradientUnits="objectBoundingBox" gradientTransform="translate(0 0)"><stop id="eiSf8tOYj2N4-fill-0" offset="0%" stop-color="#387eb8"/><stop id="eiSf8tOYj2N4-fill-1" offset="100%" stop-color="#366994"/></linearGradient><linearGradient id="eiSf8tOYj2N5-fill" x1="0.191275" y1="0.205792" x2="0.907415" y2="0.88429" spreadMethod="pad" gradientUnits="objectBoundingBox" gradientTransform="translate(0 0)"><stop id="eiSf8tOYj2N5-fill-0" offset="0%" stop-color="#ffe052"/><stop id="eiSf8tOYj2N5-fill-1" offset="100%" stop-color="#ffc331"/></linearGradient><linearGradient id="eiSf8tOYj2N9-fill" x1="0.576616" y1="0.020464" x2="0.576616" y2="0.944388" spreadMethod="pad" gradientUnits="objectBoundingBox" gradientTransform="translate(0 0)"><stop id="eiSf8tOYj2N9-fill-0" offset="0%" stop-color="#97d9f6"/><stop id="eiSf8tOYj2N9-fill-1" offset="92.024499%" stop-color="#0f80cc"/><stop id="eiSf8tOYj2N9-fill-2" offset="100%" stop-color="#0f80cc"/></linearGradient></defs><g transform="matrix(.15 0 0 0.15 6.348169 5.935329)"><path d="M126.915866,0.072276C62.083583,0.07228,66.132129,28.187465,66.132129,28.187465l.072275,29.127047h61.867872v8.745341h-86.441559c0,0-41.486166-4.704909-41.486166,60.711462s36.210051,63.096556,36.210051,63.096556h21.61039v-30.355731c0,0-1.164856-36.210051,35.631846-36.210051h61.361942c0,0,34.475438.557297,34.475438-33.319029v-56.013551c0-.000005,5.234323-33.897233-62.518352-33.897233v0v0ZM92.801807,19.65895c6.1554-.000005,11.130435,4.975035,11.130435,11.130435s-4.975035,11.130434-11.130435,11.130434-11.130435-4.975035-11.130435-11.130434s4.975035-11.130435,11.130435-11.130435v0v0Z" fill="url(#eiSf8tOYj2N4-fill)"/><path d="M128.757101,254.126271c64.832302,0,60.783738-28.11519,60.783738-28.11519l-.072275-29.127046h-61.867872v-8.745342h86.441559c0,0,41.486166,4.704896,41.486166-60.711485s-36.210051-63.096549-36.210051-63.096549h-21.61039v30.355724c0,0,1.164874,36.210051-35.631846,36.210051h-61.361948c0,0-34.475437-.557296-34.475437,33.319052v56.013552c0,0-5.234322,33.897233,62.518356,33.897233v0v0Zm34.114059-19.586674c-6.155401,0-11.130434-4.975033-11.130434-11.130435s4.975033-11.130435,11.130434-11.130435s11.130435,4.975032,11.130435,11.130435-4.975032,11.130435-11.130435,11.130435v0v0Z" fill="url(#eiSf8tOYj2N5-fill)"/></g><g transform="matrix(.17 0 0 0.17 256.498786 5.978154)"><path d="M194.519337,112.044206c-6.820773,0-12.366851,2.019005-16.618785,6.055249-4.251933,4.039779-6.408839,9.334997-6.408839,15.823211c0,3.362482.53569,6.428287,1.59116,9.237569c1.05547,2.814939,2.6979,5.422674,4.906077,7.779006c2.208177,2.358453,6.628067,5.562172,13.21547,9.635359c8.083094,4.934534,13.372818,8.939308,15.911602,12.066284c2.540553,3.124331,3.801105,6.398586,3.801105,9.812155c0,4.570519-1.50453,8.218873-4.596685,10.961326-3.097459,2.743697-7.239779,4.110497-12.375691,4.110497-5.417016,0-10.13569-1.909562-14.187845-5.701658-4.052155-3.797569-6.097679-8.820501-6.143646-15.116022h-2.519337v22.850829h2.519337c.76906-2.163808,1.83337-3.270718,3.226519-3.270718.670055,0,2.24.462143,4.685083,1.325967c5.949171,2.116766,10.834033,3.138121,14.674033,3.138121c6.617459,0,12.266077-2.317606,16.972376-7.027624c4.699226-4.707883,7.071823-10.38674,7.071823-17.016575c0-5.140862-1.566409-9.714747-4.640884-13.701643-3.074475-3.991691-9.053702-8.63471-17.98895-13.966851-7.68884-4.619513-12.679779-8.381878-14.983426-11.314917-2.307182-2.92881-3.491712-6.168567-3.491712-9.723757c0-3.845311,1.412596-6.93393,4.198895-9.237576c2.786298-2.305414,6.437127-3.447514,11.005524-3.447514c5.141216,0,9.426741,1.525746,12.81768,4.596685c3.387403,3.076243,5.346298,7.339138,5.922652,12.817687h2.519337v-19.801112h-2.342541c-.286409,1.009503-.551603,1.654806-.795581,1.944751-.236906.288177-.693038.441989-1.370165.441989-.815028,0-2.268288-.342983-4.331492-1.016574-4.41989-1.488619-8.495028-2.254144-12.243094-2.254144v0Zm82.342541,0c-8.31116,0-15.856795,1.958895-22.674033,5.878453-6.827845,3.912486-12.232486,9.345414-16.220994,16.2652C233.98011,141.107101,232,148.455772,232,156.287307c0,10.521444,3.443978,19.894962,10.38674,28.110483c6.946299,8.210571,15.269835,13.326681,24.928177,15.292818c2.208177,1.150585,5.367514,4.120751,9.502763,8.928177c4.660331,5.425318,8.602872,9.338342,11.845303,11.668508c3.238895,2.331396,6.735912,4.040132,10.43094,5.171271c3.698563,1.126371,7.697679,1.679558,12.022099,1.679558c5.236685,0,9.925304-.910144,14.055249-2.784531l-.928177-2.298342c-2.397348.864714-4.953812,1.281768-7.646409,1.281768-3.654365,0-7.347624-1.205039-11.049724-3.62431-3.696795-2.425282-8.32-7.052545-13.834254-13.878453-2.591823-3.270718-4.380994-5.334276-5.392265-6.143646c10.567072-2.063558,19.256575-7.184973,26.033149-15.381216c6.774807-8.192707,10.165746-17.542874,10.165746-28.022085c0-12.442717-4.426961-22.899808-13.21547-31.425421-8.79558-8.526498-19.611933-12.81768-32.441989-12.81768v0Zm51.403315,0l.132526,2.696133c5.533702,0,8.632929,1.630055,9.325967,4.906077.258122,1.172155.376575,3.336486.39779,6.453039l-.044128,59.624302c-.045967,4.453127-.680663,7.296353-1.900552,8.530387-1.221658,1.225193-3.28663,1.992486-6.276244,2.298342l-.132525,2.696133h55.160221l1.414364-13.524862h-2.519337c-.719558,3.68442-2.369061,6.323808-4.994475,7.823204-2.632486,1.510358-7.287514,2.254144-14.01105,2.254144h-5.215469c-6.049945,0-9.550498-2.187145-10.475138-6.585635-.19094-.870188-.256354-1.803146-.265194-2.82873l.220995-60.287285c-.001415-4.446056.560442-7.425415,1.723757-8.883978c1.17569-1.45326,3.295469-2.26652,6.36464-2.475138l-.132526-2.696133h-28.77348-.000142Zm-50.519337,3.270718c9.373702,0,17.027183,3.691846,22.939227,11.138122c5.910276,7.448942,8.839779,17.658165,8.839779,30.585642c0,12.249968-2.971934,22.058601-8.928177,29.43645-5.956243,7.375558-13.883757,11.049724-23.734807,11.049724-9.463867,0-17.138563-3.788729-23.027624-11.403315-5.883757-7.614586-8.79558-17.500641-8.79558-29.657444c0-12.492376,2.947182-22.492472,8.883978-29.966858c5.93326-7.466431,13.878453-11.182321,23.823204-11.182321v0Zm126.850829,12.817687c-1.345414,0-2.370829.454364-3.138121,1.370166-.784973.912251-1.025415,2.017223-.751382,3.359116.265194,1.301738.998895,2.442607,2.165746,3.403315c1.159779.959802,2.411492,1.458563,3.756906,1.458563c1.301216,0,2.293039-.498733,3.005525-1.458563.712486-.960708.929945-2.101577.662984-3.403315-.274034-1.341893-.982984-2.446865-2.077349-3.359116-1.10674-.915802-2.323093-1.370166-3.624309-1.370166v0Zm36.375691,9.149171c-2.285967,8.794152-7.241547,13.553135-14.850829,14.320442l.088398,2.519337h8.883978l-.176796,29.790041c.014144,5.093127.169724,8.484067.530387,10.209945.875138,4.131897,3.573038,6.232044,8.088398,6.232044c6.532596,0,13.385193-3.979315,20.552486-11.933701l-2.165746-1.856354c-5.174807,5.238283-9.750276,7.867403-13.745856,7.867403-2.455691,0-3.977901-1.412243-4.552487-4.198895-.157348-.676773-.220994-1.467573-.220994-2.38674l.088398-33.723743h13.56906l-.132525-4.022099h-13.392266v-12.81768h-2.563536-.00007Zm52.464088,11.226519c-7.589834,0-13.763536,3.68442-18.563536,11.005525-4.775248,7.333481-6.253259,15.458454-4.37569,24.397776c1.104972,5.236148,3.306077,9.294328,6.674033,12.154696c3.362652,2.859138,7.628729,4.287293,12.729281,4.287293c4.74873,0,11.360884-1.20238,14.143647-3.624309c2.789834-2.420516,5.360442-6.341842,7.734807-11.712707l-1.900553-1.988951c-3.786961,6.967514-11.429834,10.475138-17.19337,10.475138-7.923978,0-12.777017-4.347403-14.585635-12.994475-.235139-1.103742-.410166-2.289502-.530387-3.535911c9.42674-1.492509,16.571049-4.135433,21.392265-7.955801c4.81768-3.822476,9.654807-7.874292,8.751381-12.154682-.537458-2.543565-1.858121-4.543477-3.889503-6.055249-2.0579-1.511065-7.400663-2.298343-10.38674-2.298343v0Zm-82.961326.309393L394.121547,152.5746v2.917127l5.657459-.707182c2.740331,0,4.352707,1.240935,4.861878,3.712707.171492.827233.279337,1.98895.309392,3.447514l-.176795,26.740317c-.045967,3.700331-.456133,5.851396-1.281768,6.497237-.832707.647072-3.028509.972376-6.585636.972376l-.088397,2.519337h25.944751l-.044128-2.519337c-3.604862,0-5.9421-.284457-6.983426-.839779-1.023646-.551772-1.72906-1.555971-2.033149-3.093923-.235138-1.108338-.337679-3.01807-.353591-5.657458l.088398-37.745842h-2.961326-.000071Zm78.80663,4.950276c1.578784,0,3.10453.609761,4.640884,1.812155c1.515138,1.19815,2.438011,2.530468,2.740331,3.9779c1.479779,7.109134-4.822983,12.024023-19.005524,14.762417-.404862-5.183816.493259-9.889577,2.78453-14.143632c2.273591-4.249996,5.234917-6.40884,8.839779-6.40884v0Z" fill="#0d7aae"/><path d="M157.887646,9.951795h-140.737767C7.717481,9.951795,0,17.67069,0,27.102734v155.207426c0,9.431506,7.717481,17.149171,17.149879,17.149171h92.693569C108.79135,153.338017,124.54117,63.830845,157.887646,9.951795v0Z" fill="#0f80cc"/><path d="M152.774718,14.95511h-135.624839c-6.697547,0-12.147802,5.44884-12.147802,12.147624v143.883499c30.716111-11.788729,76.81727-21.960698,108.693336-21.498724c6.405558-33.49343,25.231431-99.133418,39.079305-134.532399v0Z" fill="url(#eiSf8tOYj2N9-fill)"/><path d="M190.71505,4.872458c-9.638895-8.595801-21.309172-5.142984-32.827404,5.079337-1.709613,1.518674-3.41569,3.203536-5.112928,5.003315-19.703867,20.902541-37.99337,59.620773-43.67558,89.189834c2.213481,4.48884,3.942542,10.217017,5.081105,14.592707.291713,1.122652.555138,2.176354.765525,3.072707.500331,2.121371.769061,3.497017.769061,3.497017s-.176796-.668464-.901658-2.770387c-.1379-.403094-.291712-.843315-.473812-1.361326-.07779-.213922-.185635-.473812-.304088-.751381-1.285304-2.987845-4.840663-9.294144-6.405304-12.039779-1.338343,3.947845-2.521105,7.641105-3.51116,10.982542c4.517127,8.264839,7.269834,22.42864,7.269834,22.42864s-.238674-.917922-1.373702-4.121628c-1.007735-2.83351-6.026961-11.627675-7.215911-13.683631-2.033857,7.508162-2.841989,12.577244-2.113238,13.811447c1.414895,2.391521,2.762431,6.51793,3.945724,11.081378c2.673149,10.280479,4.531271,22.795668,4.531271,22.795668s.06011.829341.160884,2.105635c-.371271,8.633282-.148509,17.584258.519779,25.674778.885745,10.709922,2.552928,19.910195,4.678011,24.834121l1.442651-.786556c-3.120441-9.700957-4.388066-22.414328-3.832928-37.075985.839779-22.410778,5.996906-49.437164,15.526188-77.606188c16.099006-42.522873,38.435359-76.640884,58.878232-92.934364-18.632486,16.827403-43.850608,71.296353-51.399779,91.466961-8.452596,22.587403-14.442431,43.783609-18.052596,64.09158c6.228508-19.038579,26.367292-27.222276,26.367292-27.222276s9.877569-12.181739,21.420553-29.585326c-6.914475,1.577016-18.268287,4.276685-22.07116,5.874917-5.609724,2.353149-7.121326,3.155801-7.121326,3.155801s18.171049-11.065635,33.760884-16.076022c21.44-33.767956,44.798232-81.739669,21.27558-102.723536" fill="#003b57"/></g><g transform="matrix(.11 0 0 0.11 50.940946 4.534921)"><path d="M255.554813,70.765714L232.31367,331.125451L127.843868,360.087912L23.661714,331.166242L0.445187,70.765714h255.109626v0Z" fill="#e44d26"/><path d="M128,337.950242l84.416703-23.403605L232.277802,92.057319h-104.277802v245.892923v0Z" fill="#f16529"/><path d="M82.82022,155.932132h45.17978v-31.937407h-80.082989l.764484,8.568264l7.849494,88.009846h71.469011v-31.936703h-42.261099l-2.918681-32.704v0Z" fill="#ebebeb"/><path d="M90.017758,236.54189h-32.05978l4.474374,50.145758l65.420659,18.161231L128,304.808088v-33.227956l-.139956.037275-35.568527-9.60422-2.273759-25.471297v0Z" fill="#ebebeb"/><path d="M24.180747,0h16.229978v16.035165h14.846594v-16.035165L71.488,0v48.558418h-16.229978v-16.26022h-14.846593v16.26022h-16.229978v-48.558418h-.000704v0Z"/><path d="M92.830945,16.102681h-14.288176v-16.102681h44.814066v16.102681h-14.294505v32.455737h-16.230682v-32.455737h-.000703v0Z"/><path d="M130.469275,0h16.923428l10.410198,17.061978L168.202549,0h16.929759v48.558418h-16.163165v-24.06822L157.802901,41.755429h-.279209L146.349714,24.490198v24.06822h-15.880439v-48.558418v0Z"/><path d="M193.20967,0h16.234901v32.50778h22.824088v16.050638h-39.058989v-48.558418v0Z"/><path d="M127.889582,220.572835h39.326945l-3.707076,41.419956-35.619869,9.614066v33.22655l65.472704-18.145759.480351-5.395692l7.504879-84.079824.779253-8.576h-74.237187v31.936703v0Z" fill="#fff"/><path d="M127.889582,155.854066v.078066h77.143209l.640704-7.17855l1.45512-16.190593.763781-8.568264h-80.002814v31.859341v0Z" fill="#fff"/></g><g transform="matrix(.11 0 0 0.11 85.650701 4.53492)"><path d="M127.843868,360.087912L23.661714,331.166242L0.445187,70.765714h255.109626L232.31367,331.125451L127.843868,360.087912v0Z" fill="#264de4"/><path d="M212.416703,314.546637L232.277802,92.057319h-104.277802v245.892923l84.416703-23.403605v0Z" fill="#2965f1"/><path d="M53.668571,188.636132l2.862418,31.936703h71.469011v-31.936703h-74.331429v0Z" fill="#ebebeb"/><path d="M47.917011,123.994725l2.903209,31.937407h77.17978v-31.937407h-80.082989v0Z" fill="#ebebeb"/><path d="M128,271.580132l-.139956.037275-35.568527-9.60422-2.273759-25.471297h-32.05978l4.474374,50.145758l65.420659,18.161231L128,304.808088v-33.227956v0Z" fill="#ebebeb"/><path d="M60.483517,0h38.681318v16.175824h-22.505494v16.175824h22.505494v16.175825h-38.681318v-48.527473v0Z"/><path d="M106.901099,0h38.681319v14.065934h-22.505495v2.813187h22.505495v32.351648h-38.681319v-14.76923h22.505494v-2.813187h-22.505494v-31.648352v0Z"/><path d="M153.318681,0L192,0v14.065934h-22.505495v2.813187h22.505495v32.351648h-38.681319v-14.76923h22.505495v-2.813187h-22.505495v-31.648352v0Z"/><path d="M202.126769,188.636132l5.765627-64.641407h-80.002814v31.937407h45.00255l-2.906022,32.704h-42.096528v31.936703h39.326945l-3.707076,41.419956-35.619869,9.614066v33.22655l65.472704-18.145759.480351-5.395692l7.504879-84.079824.779253-8.576v0Z" fill="#fff"/></g><g transform="matrix(.15 0 0 0.15 120.626452 5.139757)"><path d="M0,0h256v256h-256L0,0Z" fill="#f7df1e"/><path d="M67.311746,213.932292l19.590908-11.856051c3.779454,6.701105,7.217575,12.370896,15.464432,12.370896c7.905117,0,12.88899-3.092318,12.88899-15.120254v-81.798096h24.057499v82.13821c0,24.917333-14.605816,36.258946-35.915175,36.258946-19.245105,0-30.416457-9.96734-36.08706-21.995683"/><path d="M152.380952,211.354413l19.58847-11.341613c5.156572,8.421181,11.858489,14.607035,23.714946,14.607035c9.968153,0,16.324673-4.983873,16.324673-11.857676c0-8.248483-6.529625-11.170134-17.527873-15.980089l-6.012749-2.579505c-17.357206-7.387835-28.871111-16.667225-28.871111-36.257727c0-18.04353,13.7472-31.791543,35.228444-31.791543c15.294172,0,26.292013,5.327645,34.195911,19.247137L210.29059,147.428775c-4.124444-7.388648-8.591034-10.309486-15.464431-10.309486-7.045689,0-11.513905,4.467809-11.513905,10.309486c0,7.217574,4.468216,10.139631,14.777702,14.607847l6.013968,2.577473c20.449524,8.764546,31.963428,17.699353,31.963428,37.804292c0,21.653537-17.012215,33.509588-39.86692,33.509588-22.339454,0-36.774603-10.653664-43.819073-24.573562"/></g><g transform="matrix(.17 0 0 0.17 164.146642 7.665763)"><path d="M53.172068,0C38.564881,0,27.756475,12.784814,28.240271,26.650034c.464271,13.320678-.138847,30.572475-4.482169,44.641627C19.401763,85.402034,12.03417,94.340339,0,95.488v12.956203c12.03417,1.147661,19.401763,10.085966,23.758102,24.196339c4.343322,14.069153,4.94644,31.32095,4.482169,44.641627-.483796,13.863051,10.32461,26.650034,24.933966,26.650034h149.673221c14.607186,0,25.413423-12.784813,24.929627-26.650034-.464271-13.320677.138847-30.572474,4.482169-44.641627C236.617763,118.530169,243.965831,109.591864,256,108.444203L256,95.488c-12.034169-1.147661-19.382237-10.085966-23.740746-24.196339-4.343322-14.066983-4.94644-31.320949-4.482169-44.641627C228.260881,12.786983,217.454644,0,202.847458,0h-149.67756.00217ZM173.559322,125.533288c0,19.091526-14.240542,30.670102-37.872814,30.670102h-40.228881c-2.396354,0-4.338983-1.942629-4.338983-4.338983v-99.79661c0-2.396355,1.942629-4.338983,4.338983-4.338983h39.998915c19.705492,0,32.637831,10.673898,32.637831,27.062237c0,11.502644-8.699661,21.80122-19.783593,23.604068v.600949c15.088813,1.655322,25.248542,12.103593,25.248542,26.53722ZM131.299797,61.48339h-22.938034v32.399186h19.319322c14.934779,0,23.170169-6.01383,23.170169-16.763661c0-10.072949-7.08122-15.635525-19.551457-15.635525v0Zm-22.938034,45.255593v35.705492h23.781966c15.548746,0,23.786305-6.239458,23.786305-17.96556c0-11.728271-8.467526-17.742101-24.786441-17.742101h-22.78183v.002169Z" fill="#7e13f8"/></g><g transform="matrix(.13 0 0 0.13 214.748389 3.626299)"><path d="M76.501097,203.351341c-9.749346-7.670244-20.153223-15.020755-27.261005-25.377761-14.960492-18.263284-26.475902-39.404164-34.3487-61.624771-4.760841-14.449924-6.389638-29.941071-12.529851-43.830206-6.414748-10.090841,1.104836-21.114097,12.15655-24.319797c4.916523-.947481,13.567728-5.589469,3.125349-2.268263-9.364327,6.866727-10.266611-6.238979-.66625-7.06928c6.552015-.868803,8.964242-6.230609,6.721089-11.056736-7.035801-4.590094,17.054659-9.62547,4.931588-16.472109C16.009621,-2.288878,46.290513,-4.910353,38.8178,10.560707C37.031647,22.456114,59.98379,8.376143,54.653791,22.114619c5.415373,6.598887,20.272077,1.504921,19.898776,10.75709c7.88619.542375,10.593039,7.173068,17.988748,7.683637c7.676941,3.465169,21.579467,6.192106,24.187551,14.836616-7.60998,6.023033-25.227101-12.442804-26.077491,4.231859c2.301743,24.637855,1.714171,50.01729,10.725285,73.478328c4.261991,14.203846,14.600583,25.384457,23.93143,36.449563c8.932436,10.834094,21.030397,18.465837,33.362716,24.887281c10.815681,5.100662,22.475055,8.480457,34.265,10.606431c4.779255-3.656005,13.221211-17.250517,20.67551-11.522107.359909,6.448229-14.79644,13.470637-.711448,12.757515c8.277905-2.4976,14.013011,6.39466,20.82617-1.628797c6.27748,7.435885,26.090883-4.747449,21.624665,10.45075-6.041448,3.89706-14.850008,1.541749-20.898151,6.905228-9.971988-4.983482-17.911745,4.452826-28.955089,3.262616-12.260338,2.196281-24.738295,3.080151-37.167707,3.098564-20.395952-1.608709-41.222122-2.28835-60.623722-9.389436-10.93286-3.177243-21.597881-9.402829-31.204937-15.628416v0Zm17.223733,7.467691c10.671717,4.610182,21.109074,9.474811,32.80695,10.946252c18.557906,2.576278,37.723473,6.552016,56.346665,2.929491-8.428564-3.80499-17.145054,1.478137-25.541812-2.720242-10.069079,2.164476-20.878064-.555766-31.119564-1.896636-11.639286-5.184362-24.205965-8.748297-35.107019-15.484452-13.627992-4.975112,7.042496,6.382942,10.723611,7.305314c8.513937,4.831149-9.364327-2.479187-11.888712-4.486307-7.132891-4.002521-8.041871-3.165524-.704751.895588c1.476463.863781,2.936187,1.77276,4.484632,2.510992v0ZM73.414251,196.4662c10.345288,3.831774-.045198-7.271833-4.779255-6.630693-2.09919-3.642613-8.023458-5.944356-3.845167-7.899582-7.512888,2.609758-7.872797-9.920093-11.403252-8.127244-7.951476-2.510993-3.093543-11.404927-12.568353-16.87052-.863782-5.755194-9.409525-10.743699-12.129767-19.421688-1.203602-4.44613-9.65895-17.203645-4.466218-5.329999c4.419346,11.430036,12.195052,21.226254,18.66839,31.002384c5.021985,9.310759,10.959644,19.048386,20.108026,24.855474c3.086846,2.961297,6.061535,7.492801,10.415596,8.421868v0ZM43.623839,163.75132c.358235-1.563511,1.88994,3.379795,0,0v0Zm42.182995,37.304974c2.288351-1.026159-3.296096-1.293998,0,0v0Zm5.609557,2.047296c-.580876-2.825703-2.562886,1.581925,0,0v0Zm7.030778,2.929491c3.341294-3.185612-5.159252-2.008794,0,0v0Zm12.044393,6.714393c2.033903-3.001473-6.506818-1.129947,0,0v0ZM87.363649,196.623556c5.191058-3.361382-6.716067-.046872,0,0v0Zm5.269736,2.628172c-.150659-1.772761-1.876548.796821,0,0v0Zm26.34533,16.445325c4.236881,2.675043,24.738296,5.858982,11.902104,1.09814-2.152758.451979-23.802533-6.126821-11.902104-1.09814v0ZM77.155629,183.11944c-.411803-1.777783-6.5788-1.968618,0,0v0Zm12.260338,7.154654c3.19733-2.229762-6.623997-1.720867,0,0v0Zm10.318504,6.322678c4.583398-1.725889-7.427515-1.732585,0,0v0ZM72.158755,177.685653c4.97009,3.811686,20.049435.49048,7.611654-2.274959-5.656428-3.014865-18.407247-5.080575-9.715866,1.817958l2.104212.457001v0Zm34.566318,21.095682c2.072406-3.525433-8.684685-2.01549,0,0v0ZM96.22243,190.436471c12.149854,3.433363-10.219738-7.690332-2.999799-1.268888l1.602013.726514l1.397786.542374v0Zm21.057181,12.169942c11.508714.110484-10.397182-1.588621,0,0v0ZM67.732712,171.028175c-.451978-2.144387-2.837421.177444,0,0v0Zm69.013784,42.497706c.306341-3.870276-3.75477,2.884294,0,0v0ZM87.375367,183.054154c-.699729-2.0406-3.59574-.085374,0,0v0Zm-18.55121-13.371871c6.605583-.39841-9.049616-2.909403,0,0v0ZM46.846279,155.478437c-.823605-3.170546-7.18646-5.69493,0,0v0Zm57.694231,36.613615c-1.208624-1.381046-.569158.299645,0,0v0Zm35.905515,22.036468c-.110484-2.112582-1.955226.796821,0,0v0Zm-39.082757-25.319172c.647836-2.720241-5.63634-.825279,0,0v0ZM74.611157,171.853455c4.918197-.523961-7.879494-3.32288,0,0v0Zm45.251428,28.118091c7.663548-3.034953-7.467691-1.478138,0,0v0ZM96.327892,183.996613c8.826974,1.136642-10.507666-6.009641-1.941834-.64114l1.941834.64114v0Zm30.680977,18.864248c8.246098-4.923219,5.525856,11.542194,13.9879,1.392763c8.34319-6.093341-7.206547,7.532977,3.073455,1.086423c7.440907-4.976787,18.425661,2.360333,25.364369,4.747449c4.988505-.242729,9.841416,4.315559,14.960492,1.541749c9.848111-2.654955-19.262659-3.935561-11.63259-8.637813-9.011114,2.62315-15.666918-3.125348-20.10133-8.898956-10.109255-2.335223-21.793738-7.501171-26.842507-16.452021-2.059013-3.354686,2.969667.477088-1.777782-5.015289-6.088319-5.415373-9.128294-11.568978-13.216189-18.152799-4.884717-2.603062-5.460571-10.273307-5.951052-.254448.040176-6.324352-5.897484-10.581321-7.348837-8.815256-.026784-6.088319,6.356158-3.034953,1.88994-7.539673-.960873-6.31096-4.126397-12.888086-5.075552-20.015956-1.476464-3.433363-.20925-10.788897-5.047095-3.014865-1.759368,8.219315-.58255-10.095862,2.15778-4.061111c3.595741-6.158627-1.295672-5.433787-1.49153-4.583398c2.341919-5.197754,1.484834-12.575049-.614356-9.762738c1.2488-5.512464,1.975314-20.283795-1.863156-17.662319c2.326853-5.766912,4.414324-26.37881-5.696604-18.51773-4.092918.058589-11.187308,1.484833-14.535297,3.152132c10.507665,5.793696-1.059639,2.092493-5.343392,1.170122-.555766,5.361806-4.792647,3.046671-10.089166,3.098565c8.462043,1.046246-4.119702,8.651205-8.964243,5.696604-6.304264,3.008169,5.433788,10.527753.123876,12.854606.654532,3.498649-9.652254-1.267214-8.847063,6.828225-6.115103-2.577952-.836997,9.598686,2.223066,5.478985c10.403877,2.819007,7.323727,9.233755,7.58487,15.333792-1.694083,3.550543-8.369974-8.349886-1.484833-7.800815-5.433788-8.821953-6.007968-3.190635-10.521058.908979-1.046246.294623,11.508715,5.832198,3.629221,8.565831c6.932013,1.073031,7.134566,7.141262,8.547418,10.979732c4.164899,4.340669,3.307813-4.794321,8.297992.425195-3.158828-4.650358-16.714838-13.09901-5.800392-10.390486-.05859-4.675467-1.975314-8.448652,1.372676-8.358256c3.316183-5.996249-3.471866,14.791418,3.995825,7.168046c2.06571-.902283,2.582974-6.002946,6.297569.483784c5.393611,5.309912,1.94853,9.153404-5.663125,4.288775c1.359284,4.623574,10.181237,6.270785,8.520634,13.49742c1.757694,6.356158,4.216793,4.01424,6.36118,3.647635c1.680691,6.173693,2.636542,1.635493,2.71522-1.30739c7.695354,1.648885,5.890787,6.198803,8.303014,9.377719c5.303215,2.392138-7.591567-16.224358,1.511617-5.597839c9.578599,8.651205,3.595741,12.260338-5.001896,10.87427c5.440483-.438586,7.191481,7.357208,13.999618,7.082673c6.205499,2.9546,10.410574,14.294241-.287927,9.571902-3.707898-3.34799-16.84541-7.474387-6.113429-1.111533c9.900005,4.590094,17.772803,7.330424,27.326291,13.092314c6.833247,4.878021,9.787848,10.467489,12.377518,11.574-5.746824,2.745351-17.314128-2.191259-8.723187-3.701203-5.361805-.974265-11.389861-3.68781-6.257393,2.988081c4.367453,3.649309,15.464365,3.262616,17.459766,3.674419-1.687386,3.714594-4.583397,4.009217.065286,4.297144-5.186036,2.76544,1.667299,3.19733,2.144388,4.77256v0Zm-10.606432-29.954464c-3.158828-3.302791-3.975737-9.481506-.562462-4.107983c1.752673.706426,5.604535,10.104233.562462,4.107983v0Zm34.546231,21.944398c1.968618-.130571.05859,1.496552,0,0v0Zm-39.528039-30.039837c-.12555-4.990178,1.136642,3.850189,0,0v0Zm-3.433364-4.616877c-3.975737-7.670244,5.001897,2.171171,0,0v0ZM66.371754,131.475026c2.335223-.622726,1.151709,3.987455,0,0v0Zm33.121662,17.948572c1.431265-5.381893,1.680691,4.51309,0,0v0ZM76.09599,133.154043c-1.647211-2.967993,3.446756,2.787201,0,0v0Zm20.074546,6.434836c-3.759792-8.421868,2.668348-4.603486.836998,1.379371l-.836998-1.379371v0ZM61.547301,116.499468c-1.68069-2.765439-4.459522-10.87427-3.563934-13.351782.803517,4.034327,8.572527,17.354304,3.80499,5.51916-5.26304-9.920093,6.297568,3.215745,7.487779,5.694931.555766,2.459098-3.250898-.672946-.67462,5.100662-4.700578-6.572104-2.772136,3.629221-7.054215-2.962971v0Zm-10.6985-7.375621c.438586-6.42814,2.445706,4.407628,0,0v0Zm4.812735,1.660603c2.295047-4.851237,3.890364,6.761265,0,0v0ZM44.08084,101.826904c-3.982434-3.96402-6.866727-7.611655.189161-2.459099c2.713546.103788-6.041447-8.297992.654532-2.668347c7.0358,1.28228,3.471865,11.542194-.843693,5.127446v0Zm6.081623-.157356c2.315135-2.295047,1.228712,2.256545,0,0v0Zm3.7464,1.196906c-3.512041-6.572103,4.256969,2.758744,0,0v0Zm-7.440907-7.107781c-11.580696-10.313482,14.548689,5.386915,1.88994,1.908354l-1.88994-1.908354v0Zm33.185273,19.27605c-5.015288-3.001473-1.334174-21.152599.379997-8.741601c4.871325-1.576903-.269513,6.414748,3.359708,6.33607-.567484,5.040399-2.196281,6.853335-3.739705,2.405531v0Zm12.27373,7.258441c.490481-5.472289,1.032855,3.741379,0,0v0Zm-2.130995-2.112581c.54907-2.333549.051894,2.753721,0,0v0ZM48.736219,92.370507c-7.440907-10.26661,21.624665,10.38379,4.767537,2.603062-1.759368-.463697-3.883668-.627748-4.767537-2.603062v0ZM72.3747,104.900358c-.704752-8.644509,1.570207,1.431266,0,0v0Zm17.94355,11.513736c1.386068-4.923218.105462,3.257594,0,0v0ZM49.881232,88.453359c4.42102-.947481,18.321873,7.762314,5.557662,2.485882-1.417873-1.570207-4.44613-.857085-5.557662-2.485882v0ZM87.852456,107.37787c.472066-8.840366,2.643238-5.276431.020088,1.268889l-.020088-1.268889v0ZM53.170631,85.374883c1.804567-2.643238-4.787625-11.947301.947481-3.336272c2.479187,1.968618,7.173068,3.296096,3.028257,4.126397c6.518536,5.748498-1.588621,1.556815-3.975738-.790125v0Zm32.805277,19.244244c1.243778-10.070753,1.099814,5.897484,0,0v0ZM49.404143,76.075842c1.379372-.589247.731536,1.836372,0,0v0Zm8.559136,5.093966c2.202977-4.623574,4.061111,5.152556,0,0v0ZM82.098936,94.593572c-.020088-1.771086.457,2.582974,0,0v0Zm-1.39946-3.091868c-3.34799-8.266187,3.118652,4.374148,0,0v0Zm-2.053992-5.422069c-.560788-3.413276,1.910029,4.290448,0,0v0Zm3.34799-5.440484c-2.301743-4.047719,2.904381-17.85148,3.486931-9.290671-2.427292,6.669196-.69973,10.397182.985983,1.451354c3.127023-7.0358-.672946,13.895831-4.472914,7.839317v0Zm3.440059-20.52485c1.001049-1.230386.222642,1.483159,0,0v0ZM79.686709,173.324896c-1.360958-1.19021.17577.751624,0,0v0Zm11.835144,5.982858c6.583821,1.694082,6.552015-1.021137.600964-1.831351-3.19733-2.974689-13.299889-6.133517-4.256969-.366605.595942,1.518314,2.485882,1.478138,3.656005,2.197956v0ZM68.151211,163.783126c3.622525,2.708523,13.659798,7.663548,5.165948,1.034528c2.864205-3.329575-5.480659-5.100662-2.713546-7.330423-7.042496-4.310536-5.559336-3.923844-.621052-3.786576-8.462043-3.786576,1.222017-3.498649.765016-5.440483-3.262616-.64114-16.210966-5.755194-8.592615.418498-7.742226-3.943931-1.844743,1.471442-4.184987.902284-7.91967-2.15778,7.049192,6.029729-1.255497,3.995825c4.5382,3.595741,12.221837,9.220364,1.915051,3.804991-1.352588,1.955225,7.377295,4.918196,9.521682,6.401356v0Zm12.377518,7.114478c15.047539,4.846215-7.382317-5.930964,0,0v0Zm63.364051,38.384701c.195858-2.988081-2.053991,2.549494,0,0v0Zm6.513514,2.740329c3.471865-3.361381.143964,5.361806,5.75352-.823605.05859-4.427717-.169073-7.042496-6.446554-1.662277-1.734258.962547-2.504296,5.035376.693034,2.485882v0ZM47.023722,147.096745c-1.066334-4.191683-7.474386-4.173269,0,0v0Zm6.950427,4.556614c-2.582974-4.282078-9.213668-3.876972,0,0v0Zm39.568215,23.861122c3.865254,3.433364,17.740997,2.517689,4.68886.425195-1.930116-2.857509-12.267034-2.171171-4.68886-.425195v0Zm54.384744,33.592054c5.944355-4.990178-5.760216,2.223065,0,0v0Zm12.365799,8.49385c.038502-1.602013-2.562886.69973,0,0v0Zm.020088-2.243153c6.583822-6.970515-6.376246.411803,0,0v0ZM29.91717,132.77572c-5.609557-8.003369-3.485258-11.600784-8.898957-18.139408-1.027833-5.001897-9.285649-16.341537-4.270361-4.328951c4.590094,7.029105,5.951052,17.910071,13.169318,22.468359v0Zm128.328442,80.365143c12.118048-7.8276-4.968417-3.40658,0,0v0Zm9.247147,3.622524c6.068231-5.206123-3.83847-1.086422,0,0v0ZM44.963035,138.248009c1.734258-2.582974-4.484632-.333125,0,0v0Zm120.599608,76.042888c5.872374-3.784902-1.352588-3.204026-1.064661.346517l1.064661-.346517v0ZM85.865424,164.057661c-.202553-2.562886-3.10526.215945,0,0v0Zm4.923219,2.832399c-1.568533-3.165524-2.405531.497176,0,0v0Zm84.196917,49.958701c7.526281-5.428765-4.556614-1.041225-1.575229,1.032855l1.575229-1.032855v0Zm-2.882619-1.392763c6.133517-5.134143-6.468316,2.274958,0,0v0Zm14.724458,9.801239c4.114679-2.753721-5.001896-.888891,0,0v0ZM48.736219,136.384853c5.512465,1.235408,22.043164,13.581119,12.293818.857085-4.9952-1.478137-2.000424-13.686582-7.09439-11.528802c3.419971,5.715018,2.810637,8.140636-4.369126,4.544896-9.016136-4.407629-5.067183,2.177867-3.301118,3.995825-2.407205.54907,3.177242,2.085798,2.470816,2.130996v0ZM23.607883,116.539644c.985983-4.087895-9.096488-22.468358-4.760841-9.213667c1.561837,2.778831,1.399459,8.041871,4.760841,9.213667v0Zm46.125253,28.437824c-2.844117-2.373725-.137267-.339821,0,0v0Zm6.990602,1.628797c0-4.328951-7.728834-1.759369,0,0v0Zm60.617027,38.207257c-1.156731-2.956274-4.570006-.065285,0,0v0Zm2.909402,2.1243c-.43189-1.653907-1.68069.321407,0,0v0Zm24.025174,15.137935c2.308439-1.705801-2.884293-.220967,0,0v0ZM36.156148,119.74367c6.610606-2.557864-7.082672-1.824654,0,0v0Zm95.847921,60.380993c-.077004-4.277057-4.216793,1.066335,0,0v0ZM33.54639,113.655351c4.243577-1.431266-3.93054-.940785,0,0v0Zm12.318928,5.969466c-.071982-1.404482-1.300694.537352,0,0v0Zm150.301298,92.16848c5.458897-1.104837,17.903375,2.778831,19.910494-1.444658-6.630693-.164051-22.932054-4.682163-23.703766,1.071357l1.451353.229337l2.341919.143964v0ZM49.782466,120.612473c.098766-4.335646-3.379796-.162377,0,0v0ZM17.388992,98.139093c-1.471441-8.25949-5.597838-1.250474,0,0v0Zm7.722138,1.941834c.098766-2.654956-7.06928-2.387116,0,0v0Zm4.414325,2.171171c-1.275584-1.034528-.994353,1.300694,0,0v0Zm27.783292,17.818001c1.309064-1.203602-3.098565-.888891,0,0v0ZM26.589268,97.360686c-.751624-6.238979-8.952524-.935764,0,0v0ZM10.744907,87.080683c-.222641-2.877597-1.543423,1.084749,0,0v0Zm2.360333-1.777782c-.385019-3.414949-2.027208.430217,0,0v0Zm13.013635,7.767336c5.505769-2.157779-10.025555-4.472914-1.124924-.405107l1.124924.405107v0ZM200.344907,200.689689c3.523759-3.229136-4.472914-.999375,0,0v0Zm21.048811,10.90775c1.412852-4.171595-3.557239.549071,0,0v0ZM27.451375,86.250382c.58255-4.041023-4.367452.803518,0,0v0ZM8.926949,73.839384c-.994353-5.701626-.857086-15.713789,8.657901-12.332319-12.698925,2.524384,8.795168,15.790793,6.081623,5.314933c5.341717.262817,10.449075-3.157154,7.64346,2.027208c10.527754-1.15673,17.819675-10.285024,27.987519-9.002744c7.917996-1.052943,16.575897-1.844742,25.109923-5.035377c7.015712-.503872,13.770281-8.056937,9.926789-12.536547-9.56688-.810213-19.585739.386693-30.158691,2.492579-11.717963,2.432314-22.362896,7.06091-34.186322,9.049616-11.528802,1.550119,2.315135,4.263664-.987657,4.871324-6.009641,2.085798,7.173068,3.491954-.778407,5.694931-4.909827-.934089-10.023881-2.621476-7.924692-7.800816C9.260073,58.021808,-0.444074,62.598509,8.279113,73.832689l.647836.006695v0ZM35.535096,60.29007c2.582974-9.5334,13.862351,7.847688,4.236881,1.268889-1.145012-.863782-3.041649-1.563512-4.236881-1.268889v0Zm.502199-4.623573c3.734682-2.778832,1.982009,1.563511,0,0v0Zm4.740753.078678c.341495-4.387541,10.862552,2.32183,1.734258,1.576903l-1.734258-1.576903v0Zm6.48673-2.608084c2.373724-2.77381.688012,2.457424,0,0v0Zm1.662277-1.111533c3.948953-4.740753,22.342808-3.028257,8.878868-.46537-3.609133-2.720242-6.374572,1.602013-8.878868.46537v0Zm24.010107-3.701202c-.594268-12.955046,11.933909,4.596789,0,0v0Zm6.814833-.040176c2.490904-6.525232,9.670668-2.621476,1.15673-1.314086.182466.69973-.254447,3.374773-1.15673,1.314086v0ZM24.764613,82.902392c7.440907-4.558287-7.899581-3.955649,0,0v0Zm5.505769,1.523336c2.609758-2.772136-5.676516-1.124925,0,0v0ZM14.054395,72.923709c4.250272-3.269312-5.035377-1.242104,0,0v0Zm219.763712,137.48352c.123876-3.793272-3.250897,1.705801,0,0v0Zm-22.33109-15.243397c.634444-4.360756-2.870901.379997,0,0v0Zm28.471303,16.714839c5.944356.020088,18.013859-1.851439,5.080575-1.844743-2.033904.314711-11.828448.249426-5.080575,1.844743v0ZM35.109901,81.750684c4.812735-.326429,7.526281-5.303216-.935763-5.021984-13.110727-1.352588,11.567304,4.493002-1.68069,2.819007-1.777783,1.176818,2.510992,2.53108,2.616453,2.202977v0Zm4.236881,2.146061c-.503872-3.086846-1.491529,1.640515,0,0v0Zm5.028681-13.40535c2.085797-2.58967-2.890989-.693034,0,0v0ZM28.36705,43.739284c8.592616-2.916099,20.337363-6.198803,24.391779,1.439635-4.126398-4.963394-1.667299-9.854807,2.229761-2.58967c5.512465,7.343816,8.271208-3.341293,4.687185-5.807088c4.087896,5.073879,8.729883,7.474387,2.733634.321407c6.52021-7.840991-13.045442,1.026159-17.491572.934089-2.137691.960873-22.088362,5.087271-16.550787,5.701627v0Zm5.035377-9.637188c4.898109-3.694507,16.942501,2.202977,9.213667-3.676093-.75832-.66625-16.922413,4.459522-9.213667,3.676093v0Zm17.858176.738231c5.728411.143964-2.470816-7.703724,4.355735-4.146485-1.118229-3.661026-7.951476-4.347364-11.292769-5.81211-1.88994,3.34799,3.843492,10.003793,6.937034,9.958595v0ZM36.534471,18.629362c1.98201-2.686762-3.478561,1.367653,0,0v0Zm7.298617,1.745976c9.238778-1.222016-2.35531-3.975738-1.86483-.097092l1.86483.097092v0ZM30.205097,9.717013c-6.506818-8.493849,12.235228,1.426244,5.622948-7.467691-5.564359-4.426042-10.906076,4.990179-5.622948,7.467691v0ZM113.6755,54.673818c2.983059-5.284802-12.312232-7.12787-2.00712-1.871526.947481.314711.73321,2.236457,2.00712,1.871526v0Z"/><g transform="translate(0 244)"><path d="M53.107617,7.494584c-.659174,2.60664-1.068567,6.979369-1.22196,13.11715c0,1.206413-.543093,1.80962-1.631352,1.80962-1.089296,0-1.846931-.526511-2.276016-1.575385-1.165992-2.837765-2.270834-4.81736-3.323854-5.947077-1.242689-1.319385-2.89477-2.117441-4.955207-2.388988-2.214866-.351352-7.732858-.525474-16.555012-.525474-2.020016,0-3.343547.214543-3.963336.643628-.388664.27051-.582478.854024-.582478,1.74847v26.409457c0,.894445.562786,1.319385,1.68732,1.283109c3.4617-.040421,8.473911-.275692,15.040777-.700631c1.28311-.157539,2.149571-.574186,2.595239-1.255126.449814-.679902.88719-2.436664,1.31213-5.275465.27051-1.554656,1.185684-2.157863,2.74034-1.805474c1.320421.271547,1.887352.874753,1.692502,1.805474-1.089296,5.287903-1.441684,12.166737-1.05302,20.639611.041457,1.008454-.599061,1.554656-1.922591,1.632389-1.089296.117117-1.769199-.466397-2.040745-1.749506-1.007417-4.857782-2.886478-7.453021-5.623709-7.785717-2.74034-.327514-7.202202-.493344-13.380405-.493344-.699595,0-1.047838.250818-1.047838.756599v26.235336c0,1.94332.716178,3.26685,2.153717,3.963336c1.129716.583514,3.558089,1.108988,7.28719,1.575385c1.907045.193814,2.74034,1.032291,2.510251,2.506105-.235271,1.283109-1.94332,1.788891-5.133474,1.517344-9.210818-.740016-16.809975-.699595-22.793328.118154-1.672809.230089-2.506105-.449814-2.506105-2.040745c0-1.012599.833296-1.595077,2.506105-1.749506c3.808907-.429085,5.711806-3.772632,5.711806-10.02753v-49.907563c0-2.562073-.457069-4.534413-1.368097-5.914947-.915174-1.380535-2.615968-2.63566-5.101344-3.761231-1.554656-.699595-2.137134-1.651045-1.74847-2.857458.193814-.736907.505781-1.146299.930721-1.222996.388664-.117117,1.420955-.040421,3.088583.234235c2.450137.388664,8.223093.583514,17.315757.583514c10.729198,0,19.995984-.235271,27.810721-.700631c2.602493-.157539,3.906332.057004,3.906332.639481c0,.158575-.019693.311968-.06115.466397v0Z"/><path d="M90.915239,81.502316c0,1.554656-.874753,2.234559-2.623223,2.039708-5.360453-.505781-12.008162-.429085-19.93587.231126-1.595077.157538-2.57451.117117-2.946591-.112972-.368972-.235271-.551385-.874753-.551385-1.927773c0-.930721,1.057166-1.71634,3.174607-2.359968c2.121587-.639481,3.177717-2.554818,3.177717-5.740826v-52.760874c0-3.149733-.457069-5.462024-1.368097-6.939984-.915174-1.476923-2.518543-2.623223-4.810105-3.436826-1.206413-.429085-1.80962-1.032291-1.80962-1.809619c0-1.165992.874753-2.040745,2.623223-2.623223c2.643951-.855061,5.385328-2.174445,8.223093-3.964372C76.400972,0.696486,77.878931,0,78.497684,0c1.437539,0,2.158899.987725,2.158899,2.971466c0-.153393-.077733,1.789927-.235271,5.829959-.112972,3.846219-.153393,7.635433-.112972,11.36868l.230089,52.060243c0,2.372405.583514,4.093927,1.749506,5.162494s3.169425,1.77749,6.004081,2.125733c1.74847.193814,2.623223.854024,2.623223,1.983741v0Z"/><path d="M143.643984,78.064453c0,.817749-1.486251,2.049037-4.457717,3.700081-2.975611,1.652081-5.356307,2.478122-7.142089,2.478122-1.51838,0-2.857457-.736907-4.023449-2.214866-1.165992-1.476924-1.984778-2.21383-2.450138-2.21383-.348243,0-2.194138.79702-5.538721,2.387951-3.3394,1.595077-6.703676,2.393134-10.084534,2.393134-3.186008,0-5.850688-.934867-7.987822-2.797345-2.331984-2.061473-3.497975-4.858817-3.497975-8.397214c0-6.724405,7.696582-11.542802,23.088712-14.457263c2.639806-.505782,3.984065-1.575385,4.02034-3.206737l.118154-3.732211c.234235-6.373052-2.583838-9.55906-8.454219-9.55906-1.671773,0-3.254413,1.493506-4.753101,4.4857-1.493506,2.99634-3.643077,4.606964-6.441457,4.842235-3.186008.307822-4.781085-1.032292-4.781085-4.024486c0-1.866623,2.372404-4.040032,7.113068-6.530591c4.975936-2.602494,9.758057-3.906332,14.344292-3.906332c7.887287,0,11.793619,3.752939,11.716923,11.254672l-.235271,24.016324c-.036276,2.526834,1.033328,3.789214,3.206737,3.789214.429085,0,1.246834-.096388,2.449101-.291238c1.207449-.193814,1.907044-.291239,2.101895-.291239c1.12557,0,1.688356.760745,1.688356,2.274979v0ZM125.688745,64.773182c.040421-.972178-.186559-1.615805-.672648-1.923627-.486089-.310931-1.25098-.372081-2.299854-.177231-9.368356,1.671773-14.052016,4.724081-14.052016,9.153814c0,4.469117,2.428372,6.703676,7.28719,6.703676c1.94332,0,3.947789-.367935,6.004081-1.104842c2.412826-.85817,3.615093-1.886316,3.615093-3.092729l.118154-9.559061Z"/><path d="M186.987789,71.356632c0,4.120874-1.587821,7.397052-4.753101,9.825425-3.166316,2.429409-7.490332,3.644113-12.972048,3.644113-3.651369,0-7.307919-.388664-10.959288-1.165992-3.149733-.700631-4.975935-1.340113-5.481716-1.923627-.311968-.546203-.465361-3.205701-.465361-7.987822c0-2.060437.465361-3.129004,1.400227-3.205701.931757-.118153,1.728777.388664,2.388988,1.514235c2.914461,5.093053,7.61885,7.639579,14.10902,7.639579c5.477571,0,8.218947-1.907044,8.218947-5.716988c0-1.667627-.619789-3.06889-1.866623-4.194461-1.360842-1.28311-3.999611-2.780761-7.926672-4.489846-5.676567-2.525798-9.465781-4.740664-11.36868-6.647709-2.061474-2.020016-3.08962-4.740664-3.08962-8.161943c0-4.198608,1.61166-7.461312,4.838089-9.793296c2.992195-2.255287,6.995952-3.380858,12.008162-3.380858c3.149733,0,6.02481.250818,8.63145.757636c2.79838.505781,4.255611,1.12557,4.372728,1.865587.307822,2.174445.95145,5.324178,1.923628,9.446089.117117.501635-.430121.911028-1.632389,1.221959-1.283109.271547-2.137133.057004-2.566218-.639482-3.068891-5.016356-6.955531-7.522461-11.659919-7.522461-5.324178,0-7.987822,1.709085-7.987822,5.130364c0,1.906008.720324,3.420243,2.157862,4.545814c1.28311.972178,4.294996,2.490559,9.036697,4.550996c4.974898,2.137134,8.355757,4.060761,10.145684,5.76881c2.331984,2.214866,3.497975,5.190477,3.497975,8.919579v0Z"/><path d="M255.575061,81.55932c0,1.359806-.915174,2.081166-2.741377,2.157862-2.720648.040421-6.279773.234235-10.668048.582478-2.177555.429085-3.732211.158575-4.663968-.813603-6.141927-6.607288-11.352097-13.526543-15.627401-20.756729-.348243-.619789-.793911-.931757-1.340113-.931757-.660211,0-1.805474.583514-3.436826,1.749506-1.830348,1.008453-2.741377,2.449101-2.741377,4.311579c0,1.32353.036276,3.226429.117118,5.716988.077733,2.485376.696486,4.116729,1.862478,4.894056.817749.547239,2.705101.972179,5.655838,1.284146c1.826202.234235,2.741376.914138,2.741376,2.039709c0,.895481-.146138,1.449975-.437376,1.660372-.291239.214543-1.061312.263255-2.304.146138-3.88664-.348243-10.453506-.154429-19.703709.582478-2.331984.19485-3.595401-.097426-3.790251-.874753-.076696-.270511-.117117-.659175-.117117-1.165992c0-1.202268,1.18672-2.117442,3.559125-2.736195c2.137134-.547239,3.205701-3.053344,3.205701-7.522461v-50.955401c0-3.186008-.310932-5.400875-.934867-6.643563-.854024-1.595077-2.643951-2.838801-5.364599-3.733247-1.278964-.424939-1.922591-1.028146-1.922591-1.805474c0-1.129716.915174-2.004469,2.74034-2.623222c2.915498-.972178,5.692113-2.312292,8.336065-4.024486C210.137652,0.700632,211.461182,0,211.962818,0c1.596113,0,2.393133,1.008453,2.393133,3.032615c0-.274655-.019692,1.652081-.061149,5.769847-.036276,2.837765-.055968,6.647708-.055968,11.428793l.117117,36.493992c0,1.011563.271547,1.514235.813604,1.514235.583514,0,1.477959-.502672,2.684372-1.514235c3.226429-2.526834,7.190802-5.82996,11.891045-9.911449.934866-.971142,1.400226-1.74847,1.400226-2.331984c0-1.047838-1.574348-1.788891-4.719935-2.21383-1.360842-.158575-2.004469-.915174-1.927773-2.276016.117117-1.359806.798057-1.94332,2.040745-1.74847c2.80149.388664,6.88298.603207,12.242397.643628c3.733247.036275,7.445765.057004,11.138591.057004c1.202267.040421,1.805473.756599,1.805473,2.157862c0,1.319385-.951449,2.039708-2.854348,2.157862-2.99634.112972-5.814413.792875-8.453182,2.039709-3.692826,1.668664-7.640615,4.603854-11.838186,8.802461-.307822.234235-.466397.525474-.466397.873717c0,.543093.660211,1.846931,1.984777,3.907368c4.857782,7.384616,9.445053,12.959612,13.756632,16.732243c2.761069,2.369296,5.34387,3.55498,7.752551,3.55498c1.789927,0,2.898914.125409,3.323854.380373.430121.251854.644664.923465.644664,2.008615v0Z"/></g></g></svg>
