<svg id="epvtUj1AXBc1" xmlns="http://www.w3.org/2000/svg" xmlns:xlink="http://www.w3.org/1999/xlink" viewBox="0 0 350 50" shape-rendering="geometricPrecision" text-rendering="geometricPrecision" project-id="4253141dcc6744bebae6207540a92f94" export-id="6e68a0b4667b4019a81d2155461c6feb" cached="false"><g transform="matrix(.15 0 0 0.15 7.644382 7.057821)"><rect width="256" height="249.600006" rx="42.5" ry="42.5" fill="#001e36"/><path d="M57.644448,175.034891v-109.737494c0-.799744.343744-1.202133,1.030731-1.202133l1.086793-.003263v0l1.857941-.020458v0l2.582468-.050826v0l8.650227-.18301v0l9.273952-.171872v0c3.262507-.056256,6.496708-.085942,9.702603-.085942c8.699491,0,16.026748,1.087673,21.98177,3.263019c5.371718,1.817048,10.270638,4.809104,14.340107,8.758336c3.449544,3.423134,6.11537,7.553902,7.813547,12.107296c1.606665,4.431326,2.420649,9.110907,2.405137,13.82448c0,9.160932-2.118499,16.717198-6.354588,22.6688-4.14572,5.810163-9.926283,10.248916-16.599299,12.75576l-.574141.210128c-6.97258,2.601689-14.694668,3.541333-23.163877,3.601085l-1.315723.002778v0l-1.952618-.010407v0l-.985931-.01338v0l-1.097997-.026166v0l-.661063-.025869v0l-.402327-.020743v0l-.989055-.036292v0l-1.208908-.024404v0l-1.820301-.013786c-.132804-.0003-.267898-.000476-.405283-.000528v34.263285c.060744.425706-.082468.85517-.38656,1.159216s-.733577.447192-1.159274.386384h-20.446251c-.80208-.000032-1.20208-.456277-1.20208-1.373994ZM80.838539,84.703157v35.791926c1.486464.11537,2.860249.172576,4.121354.171639h5.6672c3.909231-.012972,7.79435-.594972,11.533352-1.726547l.745816-.233636c3.402271-1.010589,6.442399-2.977745,8.758336-5.6672c2.15256-2.538288,3.267444-6.03557,3.344652-10.491845l.004308-.499089c.090516-3.321963-.7739-6.60016-2.490666-9.445568-1.804705-2.751282-4.413059-4.879906-7.470304-6.096362-3.991834-1.551676-8.255765-2.281778-12.536438-2.146582l-2.177988.006373v0l-1.373866.011329v0l-1.311364.016993v0l-1.849856.036111v0l-1.349348.03829v0l-.702098.025928v0l-.937121.043592v0l-.797889.049232v0l-.454574.035955v0l-.392694.038461c-.060292.006619-.118006.013343-.173141.020171l-.157671.020829ZM204.769216,113.9872c-2.996936-1.539903-6.174858-2.695984-9.458599-3.441712l-.75963-.164795c-3.614177-.829233-7.303031-1.285664-11.008692-1.36263l-.926732-.011332c-2.172956-.058906-4.342789.201509-6.440096.772917-1.33492.297289-2.521395,1.057794-3.34896,2.146613-.559668.870957-.857576,1.884257-.858336,2.919531.031307,1.004374.393467,1.970287,1.030208,2.747659.911972,1.066732,2.007831,1.959629,3.234409,2.636914l.371841.196675c2.448595,1.318583,4.971585,2.494081,7.556267,3.520576c5.763702,1.929337,11.271063,4.553244,16.400523,7.813803c3.494365,2.205482,6.386018,5.244606,8.415104,8.844266c1.706174,3.408599,2.560621,7.179999,2.490144,10.991115.102762,5.032383-1.335278,9.975926-4.121355,14.167968-2.982924,4.255326-7.126041,7.563654-11.935947,9.530997-5.037239,2.212765-11.222902,3.356428-18.556991,3.430991l-.762795.0039c-4.547037.04593-9.086919-.352146-13.555108-1.188115l-.956348-.185837c-3.763005-.68997-7.425991-1.843652-10.905206-3.434667-.715369-.36935-1.171195-1.093679-1.202079-1.88943l-.000054-18.718612c-.042102-.370022.123088-.733141.429685-.944534.301954-.170743.67811-.136508.944278.085942c4.108748,2.4227,8.570169,4.189851,13.223466,5.23776c4.101432,1.028042,8.308518,1.575557,12.536459,1.631509c4.006251,0,6.95434-.5152,8.844267-1.5456c1.743544-.79807,2.85396-2.547658,2.833856-4.465067c0-1.486464-.858667-2.917543-2.576-4.293237-.72011-.576173-1.752338-1.202678-3.096685-1.879513l-.642631-.315959v0l-.686955-.323107c-.118186-.054447-.238219-.109191-.360099-.164234l-.753441-.333828c-.129268-.056233-.260382-.112765-.393343-.169594l-.819929-.34455c-.140348-.05802-.282544-.116339-.426586-.174955l-.886415-.355271c-.15143-.059807-.304706-.119912-.45983-.180316l-.952902-.365992v0l-.997227-.37314v0c-5.392297-1.876814-10.505061-4.476476-15.198432-7.727872-3.356912-2.33464-6.121031-5.422308-8.07136-9.016138-1.688889-3.384-2.542739-7.123279-2.490101-10.90495-.00956-4.543863,1.238591-9.00173,3.60625-12.88c2.69968-4.270723,6.576259-7.670077,11.163019-9.7888c5.036459-2.516928,11.333348-3.776305,18.890667-3.778133c4.425872-.035578,8.847584.280258,13.223466.944533c3.168751.401912,6.266744,1.239875,9.206038,2.490102.472636.135663.85412.485422,1.030208.944533.116082.419428.173915.852831.171872,1.288021v17.345067c.024216.410742-.172026.803324-.515104,1.030464-.465486.231506-1.012553.231529-1.478059.000064Z" fill="#31a8ff"/></g><g transform="matrix(.15 0 0 0.15 52.916863 7.057821)"><rect width="256" height="249.600006" rx="42.5" ry="42.5" fill="#470137"/><path d="M134.578133,65.640885l-31.942709,52.722134l34.175008,55.985162c.219219.391693.280692.852281.171872,1.287755-.053366.185817-.167198.231855-.341853.238645l-.194943-.00257v0l-.235572-.006396c-.127957-.00043-.271179.006081-.429712.032102l-24.63973-.000581v0l-.484377-.00696c-1.328578-.035023-2.284678-.224814-2.868608-1.198773-2.291669-4.464839-4.581425-8.901209-6.869269-13.30911-2.005211-3.855469-4.118483-7.77793-6.339816-11.767381l-.958616-1.713867c-2.57605-4.577585-5.123452-9.214393-7.642208-13.910421h-.171872c-2.291669,4.580473-4.667364,9.160075-7.127083,13.738805-2.463018,4.580466-4.895829,9.131421-7.298432,13.652864-2.404174,4.523961-4.865635,9.017625-7.384384,13.480992-.404856.909233-1.07735,1.098923-2.015327,1.130971L61.591157,176v0h-23.527082l-.101767.002835v0l-.336584.030697c-.186785.010876-.298346-.029287-.334567-.311655-.064619-.418775.027152-.846685.257814-1.202133l33.144266-54.439573-32.28593-54.611158c-.343232-.455985-.400527-.828035-.171883-1.116149.257078-.297062.638782-.45609,1.030731-.429429h24.214069c.527982-.028769,1.055866.058934,1.545824.257813.410604.232626.762901.555622,1.030219.944533c2.060928,4.58021,4.350684,9.159723,6.869269,13.738539c2.517184,4.580473,5.06458,9.102784,7.642187,13.566933c2.576042,4.465067,4.951737,8.987378,7.127082,13.566934h.171862c2.288547-4.693227,4.606951-9.27274,6.95521-13.738539c2.345309-4.465109,4.749476-8.958859,7.212502-13.481248c2.460942-4.521351,4.836636-9.015015,7.127082-13.480992.131649-.423817.367888-.807665.686934-1.116149.424004-.215282.900757-.304741,1.373962-.257814h22.496875c.446764-.110274.910305.103748,1.116124.515327.187108.374163.115812.820787-.166349,1.117748l-.090874.084365Zm50.470301,112.472591l-1.184882.012828c-7.904515.120216-15.736491-1.522456-22.92656-4.808597-6.697985-3.099983-12.297111-8.160246-16.056768-14.511456-3.791279-6.296741-5.736766-14.141819-5.835143-23.535235l-.003929-.765021c-.06461-7.88189,1.949396-15.641576,5.839072-22.497142c3.895291-6.789022,9.572789-12.378152,16.412507-16.166189l.589093-.320264c7.440626-4.1216,16.427954-6.182364,26.961984-6.182293l.460902.00537v0l.525682.016112v0l.590462.026854v0l.655242.037594v0l1.102297.077604v0l1.247899.10038v0l.912823.079574v0-33.831467c0-.799744.343754-1.202133,1.03073-1.202133h21.638016c.283783-.040564.570106.054824.772862.257477s.298289.488927.257869.772731v101.494528c0,1.704652.065663,3.539361.196988,5.504128l.320245,4.455453v0l.169754,2.576845v0c.043067.730164-.366134,1.411993-1.030731,1.717451-5.582303,2.328172-11.39669,4.055184-17.344789,5.151819-5.050214.93215-10.168216,1.444804-15.301625,1.533049v0Zm9.290638-21.282223v-46.883072c-.928205-.251456-1.876035-.423862-2.833333-.51537-1.169887-.117602-2.345054-.174883-3.520832-.171616-4.167349-.041463-8.285802.899872-12.021334,2.747658-3.63827,1.808574-6.744779,4.53058-9.015626,7.899734-2.266949,3.31623-3.439187,7.646387-3.516715,12.990473l-.004117.57646c-.083624,3.743613.527755,7.470271,1.803125,10.990933c1.03789,2.836758,2.678533,5.414739,4.808853,7.556267c2.039292,1.970321,4.508322,3.440097,7.212502,4.293493c2.856385.924863,5.841919,1.388578,8.844266,1.374375c1.602091,0,3.090447-.057884,4.465067-.172295c1.097071-.082684,2.184131-.263674,3.248128-.540596l.530016-.146444Z" fill="#ff61f6"/></g></svg>
