<svg id="emasKz4VvuX1" xmlns="http://www.w3.org/2000/svg" xmlns:xlink="http://www.w3.org/1999/xlink" viewBox="0 0 300 50" shape-rendering="geometricPrecision" text-rendering="geometricPrecision" project-id="4253141dcc6744bebae6207540a92f94" export-id="40b7fa4283c24671953b1f5732ec1d49" cached="true"><defs><path id="emasKz4VvuX2" d="M142.222222,14.222222C142.222222,6.367502,148.589867,0,156.444444,0h85.333334C249.632356,0,256,6.367502,256,14.222222v312.888889c0,7.854578-6.367644,14.222222-14.222222,14.222222h-227.555556C6.367644,341.333333,0,334.965689,0,327.111111v-142.222222c0-7.854578,6.367644-14.222222,14.222222-14.222222h56.889245v-71.111111c0-7.854578,6.367644-14.222223,14.222222-14.222223h56.888533v-71.111111Z"/><linearGradient id="emasKz4VvuX5-fill" x1="0.425926" y1="0" x2="0.572449" y2="0.931735" spreadMethod="pad" gradientUnits="objectBoundingBox" gradientTransform="translate(0 0)"><stop id="emasKz4VvuX5-fill-0" offset="0%" stop-color="#e6ad10"/><stop id="emasKz4VvuX5-fill-1" offset="100%" stop-color="#c87e0e"/></linearGradient><linearGradient id="emasKz4VvuX8-fill" x1="0.401219" y1="0" x2="0.620283" y2="0.955919" spreadMethod="pad" gradientUnits="objectBoundingBox" gradientTransform="translate(0 0)"><stop id="emasKz4VvuX8-fill-0" offset="0%" stop-color="#f6d751"/><stop id="emasKz4VvuX8-fill-1" offset="100%" stop-color="#e6ad10"/></linearGradient><linearGradient id="emasKz4VvuX9-fill" x1="0.277742" y1="0" x2="0.550115" y2="0.968281" spreadMethod="pad" gradientUnits="objectBoundingBox" gradientTransform="translate(0 0)"><stop id="emasKz4VvuX9-fill-0" offset="0%" stop-color="#f9e589"/><stop id="emasKz4VvuX9-fill-1" offset="100%" stop-color="#f6d751"/></linearGradient><linearGradient id="emasKz4VvuX17-fill" x1="0.589717" y1="0.074115" x2="0.371905" y2="1.037618" spreadMethod="pad" gradientUnits="objectBoundingBox" gradientTransform="translate(0 0)"><stop id="emasKz4VvuX17-fill-0" offset="0%" stop-color="#114a8b"/><stop id="emasKz4VvuX17-fill-1" offset="100%" stop-color="#0669bc"/></linearGradient><linearGradient id="emasKz4VvuX19-fill" x1="0.597188" y1="0.523127" x2="0.526914" y2="0.548637" spreadMethod="pad" gradientUnits="objectBoundingBox" gradientTransform="translate(0 0)"><stop id="emasKz4VvuX19-fill-0" offset="0%" stop-color="rgba(0,0,0,0.3)"/><stop id="emasKz4VvuX19-fill-1" offset="7.1%" stop-color="rgba(0,0,0,0.2)"/><stop id="emasKz4VvuX19-fill-2" offset="32.1%" stop-color="rgba(0,0,0,0.1)"/><stop id="emasKz4VvuX19-fill-3" offset="62.3%" stop-color="rgba(0,0,0,0.05)"/><stop id="emasKz4VvuX19-fill-4" offset="100%" stop-color="rgba(0,0,0,0)"/></linearGradient><linearGradient id="emasKz4VvuX20-fill" x1="0.372789" y1="0.046001" x2="0.624734" y2="0.999795" spreadMethod="pad" gradientUnits="objectBoundingBox" gradientTransform="translate(0 0)"><stop id="emasKz4VvuX20-fill-0" offset="0%" stop-color="#3ccbf4"/><stop id="emasKz4VvuX20-fill-1" offset="100%" stop-color="#2892df"/></linearGradient><linearGradient id="emasKz4VvuX22-fill" x1="0.129594" y1="0.120394" x2="0.796388" y2="0.782009" spreadMethod="pad" gradientUnits="objectBoundingBox" gradientTransform="translate(0 0)"><stop id="emasKz4VvuX22-fill-0" offset="0%" stop-color="#387eb8"/><stop id="emasKz4VvuX22-fill-1" offset="100%" stop-color="#366994"/></linearGradient><linearGradient id="emasKz4VvuX23-fill" x1="0.191275" y1="0.205792" x2="0.907415" y2="0.88429" spreadMethod="pad" gradientUnits="objectBoundingBox" gradientTransform="translate(0 0)"><stop id="emasKz4VvuX23-fill-0" offset="0%" stop-color="#ffe052"/><stop id="emasKz4VvuX23-fill-1" offset="100%" stop-color="#ffc331"/></linearGradient></defs><g transform="matrix(.12 0 0 0.12 50.654708 4.093333)"><g mask="url(#emasKz4VvuX10)"><polygon points="256,0 256,341.333333 142.222222,341.333333 142.222222,0" fill="url(#emasKz4VvuX5-fill)"/><path d="M184.888889,100.977778v241.777778h-113.777778v-256h99.555556c7.854577,0,14.222222,6.367644,14.222222,14.222222Z" fill-opacity="0.2"/><path d="M184.888889,106.666667v241.777777h-113.777778v-256h99.555556c7.854577,0,14.222222,6.367645,14.222222,14.222223Z" fill-opacity="0.18"/><path d="M184.888889,99.555556v241.777777h-113.777778v-256h99.555556c7.854577,0,14.222222,6.367645,14.222222,14.222223Z" fill="url(#emasKz4VvuX8-fill)"/><path d="M0,170.666667v170.666666h113.777778v-156.444444c0-7.854578-6.367645-14.222222-14.222222-14.222222h-99.555556Z" fill="url(#emasKz4VvuX9-fill)"/><mask id="emasKz4VvuX10" mask-type="luminance" x="-150%" y="-150%" height="400%" width="400%"><use width="256" height="341.333344" xlink:href="#emasKz4VvuX2" fill="#fff"/></mask></g></g><g transform="matrix(.13 0 0 0.13 88.227553 2.338431)"><path d="M152.309482,230.297132l15.560488,50.487113c3.495602,11.46279,4.953626,19.464959,4.370416,24.026061c8.510475-22.792067,14.455924-47.630505,17.83848-74.513174h18.709943c-8.044578,43.765682-18.655705,75.570272-31.826678,95.410714-10.262237,15.287895-21.504413,22.93169-33.746334,22.93169-3.263415,0-7.287685-.985606-12.063058-2.943987v-10.550202c2.33284.342487,5.07033.525188,8.218566.525188c5.711129,0,10.313733-1.582592,13.815429-4.741359c4.193382-3.848936,6.291901-8.175093,6.291901-12.969307c0-3.274559-1.636887-9.993851-4.895732-20.158182l-21.680534-67.504555h19.407113ZM33.224066,199.265507l28.500797,86.956987h.174893l28.6757-86.956987h23.42803c5.130052,43.124091,8.159453,82.581946,9.090029,118.34607h-19.752325c-.694733-33.433009-2.620483-64.870975-5.76811-94.320009h-.174L67.321118,317.611577h-15.041267L22.384103,223.291568h-.176121c-2.218269,28.281949-3.613828,59.719915-4.195819,94.320009h-18.012163c1.163982-42.079214,4.076984-81.524848,8.739005-118.34607h24.485061Z" fill="#00758f"/><path d="M352.497915,197.509381c30.656601,0,45.986426,19.586861,45.986426,58.739197c0,21.276384-4.610222,37.34702-13.821523,48.204881-1.660655,1.983739-3.494963,3.697398-5.426837,5.285795v0l21.69516,10.726793-.02133-.001222-7.703001,13.302017-28.252461-16.48492c-4.683351,1.386753-9.835952,2.079977-15.451707,2.079977-15.052541,0-26.296241-4.387261-33.731099-13.149563-8.160061-9.694137-12.237045-24.955146-12.237045-45.75767c0-21.155704,4.60108-37.165848,13.815429-48.036846c8.391639-9.943746,20.110682-14.908439,35.147988-14.908439Zm-93.880321.172924c10.957275,0,20.921204,2.932071,29.894834,8.775133l-4.558421,10.156388c-7.678625-3.264171-15.250601-4.902673-22.71593-4.902673-6.057581,0-10.725697,1.458245-13.979971,4.391845-3.272557,2.908241-5.295813,6.650856-5.295813,11.212263c0,7.008925,4.994153,13.08846,14.214596,18.224855c2.480535,1.348719,5.711382,3.147248,9.031265,5.011267l.687925.386468c.114794.064525.229639.129096.344509.193698l.689297.387853c.11486.064661.22969.129322.344463.193966l.687739.387536c6.980677,3.935354,13.548167,7.691395,13.548167,7.691395c9.220443,6.544841,13.815429,13.522603,13.815429,25.015639c0,10.036625-3.677817,18.276182-11.009075,24.722951-7.337352,6.418356-17.194633,9.636088-29.538326,9.636088-11.54536,0-22.734212-3.703508-33.572651-11.050032l5.07033-10.165859c9.327091,4.674755,17.767483,7.00923,25.345553,7.00923c7.108822,0,12.672777-1.586257,16.697961-4.720277c4.016042-3.156629,6.42323-7.559166,6.42323-13.143148c0-7.026951-4.887505-13.033466-13.855041-18.0724-2.32844-1.281178-5.31079-2.954321-8.395042-4.697606l-.686842-.38842c-1.261463-.713742-2.533054-1.435169-3.777444-2.142519l-.675836-.3843c-6.054207-3.443784-11.28934-6.452972-11.28934-6.452972-8.964489-6.556756-13.458922-13.591956-13.458922-25.183675c0-9.586899,3.35178-17.335792,10.0462-23.231404c6.709655-5.907527,15.366389-8.86129,25.967156-8.86129Zm175.895339,1.583202v103.788061h37.238279v14.558009h-56.124038v-118.34607h18.885759Zm57.930952,103.833584v2.459433h-4.095266v12.040832h-3.129344v-12.040832h-4.253714v-2.459433h11.478324Zm7.559819,0l3.930724,9.883864l3.610782-9.883864h4.436538v14.500265h-2.949597v-11.035673l-4.110502,11.035673h-2.126826l-4.116596-11.035673h-.158478v11.035673h-2.791089v-14.500265h4.275044ZM350.569117,212.063723c-18.066096,0-27.103714,14.909662-27.103714,44.709737c0,17.069686,2.394999,29.449034,7.175857,37.163404v0c4.427397,7.140604,11.362535,10.702962,20.805414,10.702962c18.066096,0,27.103715-15.025453,27.103715-45.06414c0-16.831074-2.394999-29.103185-7.169763-36.821221-4.433491-7.124717-11.365582-10.690742-20.811509-10.690742Z" fill="#f29111"/><path d="M303.217602,7.333219c5.993593-14.726044,26.948314-3.574579,35.080952,1.570371c1.992786,1.286237,4.278091,4.005362,6.563396,5.010521c3.565075.140539,7.127103.418562,10.698273.568267c6.697467,1.573425,12.97139,2.859663,18.24892,5.865976c24.528938,14.444966,40.495601,29.1649,55.191634,53.478149c3.138486,5.151061,4.707759,10.723738,7.273364,16.296416c3.558981,8.307077,7.559788,17.026607,11.691619,24.882432c1.849573,3.723673,3.281667,7.864991,5.85038,11.009704c1.002487,1.438081,3.851531,1.861531,5.554814,2.720957c4.707728,2.436825,10.411849,4.286746,14.839246,7.147326c8.269756,5.155643,16.265276,11.299642,23.532545,17.589068c2.708848,2.428576,4.555374,5.865702,7.136245,8.433869v0v1.296014c-2.291399.703001-4.573656,1.422805-6.858961,1.999015-4.991106,1.283182-9.412409.992938-14.254208,2.276121-2.992226.86737-6.706608,2.013065-9.845093,2.303312.140166.140844.289472.292373.289472.292373c1.846526,5.274796,11.834832,9.565207,16.402394,12.719392c5.54872,4.004139,10.689133,8.86129,14.827058,14.437023c1.429077,1.423721,2.858154,2.718818,4.281137,4.137651.993346,1.438081,1.273646,3.297473,2.279211,4.580656v0v.432921c-1.113874-.393102-1.914578-1.142455-2.674319-1.926928l-.453106-.472329c-.452547-.471405-.909947-.932332-1.430996-1.313417-3.147627-2.150553-6.273924-4.722416-9.42155-6.721431-5.411602-3.433429-11.688572-5.426639-17.246434-8.873206-3.141532-2.001459-6.136835-4.28094-9.132077-6.569893-2.714943-2.007264-5.704121-5.862005-7.410482-8.721668-1.005504-1.579842-1.142652-3.437095-2.291399-4.579128.205554-1.909448,1.954845-2.477121,3.71902-2.943252l.406686-.106331c.608337-.158485,1.204366-.316235,1.724674-.52469c7.413529-3.14838,16.253088-4.290397,27.667423-4.00414v0c-.429698-2.866373-7.562926-6.43698-9.839059-8.153084-4.57061-3.294112-9.409362-6.731208-14.257255-9.728966-2.568683-1.570676-6.996049-2.716375-9.842046-3.999251-3.8515-1.574037-12.410729-3.147158-14.54368-6.144916-3.625079-4.725941-6.229133-10.362955-8.757366-16.057583l-.688349-1.553867c-.229296-.518005-.458676-1.035844-.68885-1.552877-2.989178-6.856777-6.700513-14.005935-9.695786-21.026775-1.566196-3.424875-2.285305-6.431188-4.000807-9.715524-10.405754-20.158182-25.808709-37.035085-44.484219-48.904521-6.136805-3.861768-12.980531-7.436347-20.534225-9.865228-4.281138-1.292348-9.418503-.577432-13.979972-1.57037v0h-3.001336c-2.562588-.721027-4.701664-3.437126-6.700514-4.869983-4.415208-2.997147-8.836511-5.010521-14.117089-7.149158-1.849573-.85851-7.133168-2.856578-8.976677-1.283183-1.142653.287189-1.721596.718002-2.001897,1.8637-1.136588,1.71091-.137149,4.28644.569803,5.862922c2.142092,4.570573,5.134318,7.286642,7.84926,11.14841c2.416329,3.424874,5.417696,7.286642,7.130151,11.010926c3.6961,8.004613,5.417696,16.873847,8.842606,24.87846c1.270629,3.009368,3.27862,6.434243,5.128224,9.150312c1.566195,2.153913,4.415239,3.712094,5.27753,6.440353c1.71855,2.859664-2.571729,12.297133-3.565075,15.294311-3.714413,11.726759-2.995303,28.027145,1.282787,38.193004.076245.177365.1522.356165.228142.536025l.228061.542377c1.561894,3.722783,3.233735,7.731779,7.386963,8.773383.286425-.28413,0-.134746.566756-.28413c1.005564-7.868351,1.288912-15.445237,4.000807-21.601152c1.566195-3.848936,4.69557-6.569893,6.840679-9.712162c1.429077.85576,1.429077,3.437065,2.282288,5.14495c1.855667,4.430034,3.848484,9.287184,6.136805,13.730356c4.69554,9.150312,9.979164,18.021073,15.966663,26.025381c2.004974,2.858136,4.85091,6.005324,7.416575,8.580823c1.142683.996544,2.422424,1.572815,3.281698,2.855936v0h.280331v.432005c-4.278091-1.577703-6.989986-6.003154-10.402707-8.586934-6.42323-4.85715-14.11709-12.15143-18.544487-19.150884-1.85262-4.017277-3.854578-7.868352-5.85038-11.866381v0-.288997c-.853211,1.142398-.566786,2.276059-.993346,4.004139-1.85262,7.145187-.42659,15.296205-6.843726,17.865564-7.273363,3.009979-12.700201-4.85715-14.976364-8.431424-7.276411-11.866381-9.269196-31.884025-4.137925-48.042956c1.139605-3.577635,1.295006-7.86713,3.284744-10.723738-.429637-2.581641-2.419406-3.287421-3.571169-4.869982-1.995833-2.703849-3.705241-5.853786-5.268389-8.857013-3.001367-5.865977-5.137366-12.874596-7.416576-19.165244-1.002487-2.56942-1.288882-5.148006-2.288352-7.579942-1.703314-3.712063-4.844877-7.436347-7.267269-10.720682-3.281698-4.720278-12.837319-13.867535-8.985819-23.167551Zm46.772541,28.014854c.380884.3819.840992.715938,1.316787,1.044432l.574417.394239c.765085.529325,1.505267,1.087789,1.960296,1.84872.719079,1.00516.853181,1.998098,1.715502,3.006344c0,3.437095-.996423,5.722412-3.007461,7.146103c0,0-.137118.149766-.277253.290274-1.139636-2.291397-2.139045-4.570512-3.287792-6.858915-1.413842-1.998098-3.412752-3.583745-4.564515-5.865976v0h-.277284v-.287158c1.721597-.424703,3.427988-.718063,5.847333-.718063Z" fill="#00758f"/></g><g transform="matrix(.15 0 0 0.15 161.320647 6.908515)"><path d="M85.343254,0.002909h75.752672l-78.63871,232.99809c-1.657265,4.909267-6.260875,8.215898-11.442325,8.215898h-58.954304c-3.88427,0-7.530952-1.87012-9.796597-5.025181s-2.872836-7.208288-1.631181-10.888757L73.898019,8.218807C75.554624,3.307377,80.159965,0,85.343254,0v.002909Z" fill="url(#emasKz4VvuX17-fill)"/><path d="M195.422901,156.282432h-120.125503c-2.285475-.002524-4.339668,1.393855-5.17816,3.519963s-.290443,4.548756,1.381508,6.106954l77.189872,72.046209c2.24738,2.096419,5.20652,3.261339,8.279903,3.261339h68.01972l-29.56734-84.934465Z" fill="#0078d4"/><path d="M85.343254,0.00282c-5.245032-.020039-9.893351,3.373954-11.471419,8.375999L0.722998,225.105126c-1.325634,3.695057-.767354,7.804305,1.496049,11.011758s5.947905,5.110621,9.873543,5.100057h60.475874c4.585575-.819355,8.375639-4.042577,9.920754-8.43705L97.07651,189.788984l52.105782,48.600062c2.183522,1.806101,4.922636,2.804757,7.756227,2.827895h67.76661l-29.721534-84.934506-86.642228.020365L161.369401,0.00282h-76.026147Z" fill="url(#emasKz4VvuX19-fill)"/><path d="M182.098251,8.20717c-1.654266-4.903518-6.252734-8.204261-11.427779-8.204261h-84.425332c5.174757,0,9.772756,3.301303,11.427779,8.204261l73.26812,217.09288c1.242591,3.681141.635957,7.735451-1.629688,10.891666s-5.912884,5.02809-9.798091,5.02809h84.428241c3.884695,0,7.531065-1.873201,9.79603-5.029272s2.871267-7.209829,1.62884-10.890484L182.098251,8.20717Z" fill="url(#emasKz4VvuX20-fill)"/></g><g transform="matrix(.15 0 0 0.15 6.348169 5.935329)"><path d="M126.915866,0.072276C62.083583,0.07228,66.132129,28.187465,66.132129,28.187465l.072275,29.127047h61.867872v8.745341h-86.441559c0,0-41.486166-4.704909-41.486166,60.711462s36.210051,63.096556,36.210051,63.096556h21.61039v-30.355731c0,0-1.164856-36.210051,35.631846-36.210051h61.361942c0,0,34.475438.557297,34.475438-33.319029v-56.013551c0-.000005,5.234323-33.897233-62.518352-33.897233v0v0ZM92.801807,19.65895c6.1554-.000005,11.130435,4.975035,11.130435,11.130435s-4.975035,11.130434-11.130435,11.130434-11.130435-4.975035-11.130435-11.130434s4.975035-11.130435,11.130435-11.130435v0v0Z" fill="url(#emasKz4VvuX22-fill)"/><path d="M128.757101,254.126271c64.832302,0,60.783738-28.11519,60.783738-28.11519l-.072275-29.127046h-61.867872v-8.745342h86.441559c0,0,41.486166,4.704896,41.486166-60.711485s-36.210051-63.096549-36.210051-63.096549h-21.61039v30.355724c0,0,1.164874,36.210051-35.631846,36.210051h-61.361948c0,0-34.475437-.557296-34.475437,33.319052v56.013552c0,0-5.234322,33.897233,62.518356,33.897233v0v0Zm34.114059-19.586674c-6.155401,0-11.130434-4.975033-11.130434-11.130435s4.975033-11.130435,11.130434-11.130435s11.130435,4.975032,11.130435,11.130435-4.975032,11.130435-11.130435,11.130435v0v0Z" fill="url(#emasKz4VvuX23-fill)"/></g><g transform="matrix(.15 0 0 0.15 206.203892 4.47893)"><path d="M191.54779,186.292389l.059495,60.519741-53.704247,26.799239v-60.493299l53.644752-26.825681Zm64.453028-32.345504v60.731279l-45.804619,22.85934-.033053-60.453635l45.837672-23.136984Zm-64.532355-48.660384l.059495,59.885126-53.62492,26.647196v-59.904958l53.565425-26.627364Zm64.532355-32.081082v59.508324l-45.850893,23.30886-.039663-60.004117l45.890556-22.813067Zm-126.26183-7.040254L177.67221,90.359841l-49.731296,24.974722L80.91334,91.715007l48.825648-25.549842ZM63.064809,32.510769l45.718682,23.077489L59.845463,81.131489L12.890606,57.551596L63.064809,32.510769Zm130.69091.35036l49.242114,24.690467-44.039598,22.118958-48.03238-24.227728l42.829864-22.581697ZM128.231779,0l44.330462,22.224726-42.505946,22.694077L84.377277,21.880977L128.231779,0Z" fill="#4dabcf"/><path d="M118.943932,131.913865L82.77091,113.728195v78.606252c0,0-44.237915-94.127863-48.336466-102.582779-.528846-1.090743-2.703722-2.287256-3.25901-2.578121C23.242754,83.00889,0,71.23547,0,71.23547v138.874792l32.153798,17.187474v-72.590636c0,0,43.768564,84.106244,44.211472,85.025113s4.838935,9.783639,9.532438,12.897216c6.253596,4.138215,33.052835,20.254777,33.052835,20.254777l-.006611-140.970341Z" fill="#4d77cf"/></g></svg>
